<?xml version="1.0" standalone="no"?>
<!DOCTYPE svg PUBLIC "-//W3C//DTD SVG 20010904//EN"
 "http://www.w3.org/TR/2001/REC-SVG-20010904/DTD/svg10.dtd">
<svg version="1.0" xmlns="http://www.w3.org/2000/svg"
 width="2000.000000pt" height="2000.000000pt" viewBox="0 0 2000.000000 2000.000000"
 preserveAspectRatio="xMidYMid meet">

<g transform="translate(0.000000,2000.000000) scale(0.100000,-0.100000)"
fill="#000000" stroke="none">
<path d="M10388 17311 c-119 -18 -147 -30 -72 -32 49 -1 49 -1 17 -11 -40 -13
-42 -24 -7 -32 50 -13 12 -21 -126 -27 -107 -4 -141 -9 -154 -21 -16 -16 -112
-41 -286 -75 -80 -15 -90 -19 -65 -25 20 -5 13 -6 -20 -3 -36 4 -46 2 -35 -5
11 -7 2 -9 -30 -5 -35 4 -40 3 -25 -5 17 -9 15 -9 -10 -4 -56 10 -46 21 31 33
42 7 72 16 68 21 -5 4 -72 11 -148 14 -76 4 -146 10 -154 15 -33 19 61 33 231
36 165 2 227 12 227 35 0 5 -21 11 -47 11 -42 1 -44 2 -18 8 29 7 28 8 -18 16
-62 10 -233 -6 -230 -21 1 -7 -43 -20 -105 -34 -175 -36 -315 -71 -352 -87
l-35 -16 44 -8 c64 -12 65 -22 1 -14 -63 8 -256 -22 -405 -62 -241 -64 -246
-62 -48 18 73 29 131 55 128 57 -8 8 -223 -61 -355 -114 -199 -81 -291 -126
-286 -139 2 -7 -12 -21 -32 -31 l-37 -18 33 -4 c19 -2 47 1 64 7 17 6 33 9 35
7 4 -4 -25 -17 -332 -141 -290 -117 -339 -139 -480 -217 -268 -147 -496 -309
-464 -329 7 -4 -9 -19 -42 -38 -29 -16 -55 -28 -58 -25 -3 2 17 27 45 55 57
60 40 54 -86 -31 -228 -153 -535 -421 -683 -595 -39 -47 -28 -38 54 41 217
209 418 358 446 330 4 -3 -2 -19 -13 -34 -39 -53 -39 -53 8 -46 24 4 78 25
121 46 43 22 81 37 85 34 3 -4 -16 -26 -43 -49 -42 -35 -95 -88 -168 -165 -6
-7 -34 -29 -60 -49 -27 -19 -46 -38 -42 -41 3 -4 9 -1 13 5 4 6 24 19 44 30
21 11 34 24 30 28 -4 4 7 5 23 2 17 -4 24 -4 18 -1 -19 8 -16 27 3 20 12 -5
15 -2 10 11 -6 14 -4 14 15 -3 22 -19 22 -19 15 3 -6 18 -4 22 7 17 8 -3 18
-1 22 5 10 18 25 12 18 -6 -6 -16 -5 -16 10 -4 42 33 3 -16 -70 -91 -34 -34
-55 -77 -31 -62 5 3 7 8 5 11 -7 6 178 193 192 193 26 0 5 -29 -92 -124 -57
-55 -115 -114 -129 -131 -13 -16 -42 -46 -64 -66 -51 -47 -124 -128 -124 -138
0 -4 -16 -20 -35 -36 -20 -15 -34 -34 -31 -41 5 -13 -9 -27 -31 -30 -6 -1 -28
-21 -50 -45 -21 -24 -63 -71 -93 -104 -106 -117 -133 -150 -168 -202 -19 -29
-38 -50 -43 -47 -5 3 -9 0 -9 -6 0 -14 -132 -190 -142 -190 -4 0 -8 -5 -8 -12
0 -6 -17 -34 -38 -62 -87 -115 -262 -401 -262 -429 0 -7 -6 -21 -14 -32 -7
-11 -25 -49 -41 -85 -15 -36 -37 -85 -49 -109 -15 -33 -18 -45 -8 -49 6 -2 12
-8 12 -13 0 -4 -7 -6 -15 -3 -10 4 -15 0 -15 -11 0 -12 5 -15 20 -10 19 6 20
3 14 -22 -10 -45 -31 -104 -55 -158 -27 -62 -49 -140 -49 -180 0 -17 -9 -48
-20 -70 -11 -22 -20 -52 -20 -67 0 -15 -4 -28 -10 -28 -5 0 -10 -14 -10 -31
l0 -30 30 33 c17 18 30 38 30 44 0 7 3 14 8 16 6 3 17 21 69 121 17 31 43 36
43 8 0 -10 -7 -34 -14 -53 -20 -48 -30 -180 -14 -189 15 -10 -3 -86 -43 -183
-16 -37 -29 -75 -29 -84 0 -8 -11 -44 -25 -78 -27 -67 -60 -222 -50 -232 3 -3
8 4 12 16 3 12 9 22 13 22 14 0 18 -51 13 -154 -10 -236 -9 -311 6 -322 11 -8
11 -18 4 -45 -6 -19 -11 -60 -12 -93 -1 -32 -5 -77 -10 -100 -14 -63 -25 -311
-14 -330 7 -12 12 -1 22 46 7 35 21 82 32 106 10 23 19 49 19 57 0 8 4 15 8
15 11 0 28 60 37 130 4 30 19 107 32 170 13 63 28 135 33 160 22 114 98 360
111 360 5 0 9 7 9 15 0 8 11 39 25 70 13 30 24 56 24 58 -1 11 16 51 41 95 5
9 23 49 40 87 17 39 35 77 40 85 6 8 13 23 16 33 4 9 10 17 15 17 5 0 9 7 9
15 0 8 7 15 15 15 9 0 15 9 15 25 0 15 6 25 15 25 8 0 21 14 30 30 9 17 19 30
23 30 4 0 16 18 26 41 11 22 30 51 43 65 13 14 23 28 23 33 0 9 76 8 86 -1 12
-12 34 4 34 26 0 17 2 18 10 6 6 -9 6 -18 0 -24 -6 -6 -10 -18 -10 -28 0 -10
-4 -18 -8 -18 -4 0 -16 -33 -26 -72 -10 -40 -25 -82 -32 -93 -17 -27 -45 -171
-37 -192 6 -14 8 -14 21 3 13 18 14 17 7 -11 -3 -16 -17 -52 -29 -80 -13 -27
-37 -93 -54 -145 -18 -52 -54 -160 -81 -240 -27 -80 -52 -163 -56 -185 -3 -22
-10 -67 -16 -100 -5 -33 -16 -134 -25 -225 -8 -91 -18 -199 -22 -240 -8 -81
-8 -166 2 -353 4 -88 11 -128 26 -159 11 -23 20 -48 20 -55 0 -15 16 -17 25
-3 7 11 19 114 34 290 21 231 34 296 128 605 30 99 72 216 93 260 21 44 45 98
53 120 23 61 89 209 97 215 4 3 20 30 36 60 16 30 31 57 34 60 12 12 30 51 30
65 0 8 4 15 8 15 5 0 19 23 32 50 22 48 42 62 55 40 14 -23 43 -9 60 30 10 22
31 54 48 72 25 29 28 30 22 10 l-7 -23 26 22 c14 12 23 25 21 29 -6 10 22 33
32 27 5 -3 15 9 23 26 8 18 25 43 38 57 l24 25 -7 -39 c-6 -38 -32 -85 -47
-86 -5 0 -8 -8 -8 -19 0 -10 -20 -58 -45 -105 -25 -48 -45 -98 -45 -112 0 -13
-4 -24 -8 -24 -13 0 -42 -92 -42 -132 0 -20 -4 -40 -10 -43 -5 -3 -10 -14 -10
-23 0 -21 -58 -173 -71 -186 -5 -6 -9 -21 -9 -35 0 -15 -7 -45 -15 -69 -8 -23
-22 -81 -30 -130 -8 -48 -22 -118 -31 -157 -9 -38 -20 -92 -25 -120 -4 -27
-13 -68 -19 -90 -16 -62 -31 -134 -40 -200 -5 -33 -14 -89 -20 -125 -5 -36
-12 -83 -15 -105 -13 -101 -27 -195 -38 -250 -7 -36 -11 -161 -11 -317 0 -151
-4 -258 -9 -258 -5 0 -7 -16 -4 -35 8 -46 -3 -105 -18 -105 -13 0 -32 40 -37
78 -2 12 -7 22 -13 22 -5 -1 -13 9 -17 22 -6 23 -6 23 -7 -3 -1 -14 5 -31 11
-37 10 -10 10 -15 -2 -22 -26 -16 -26 -237 0 -399 26 -165 42 -242 69 -343 20
-75 113 -363 131 -403 4 -11 17 -40 28 -65 11 -25 32 -74 47 -110 14 -36 32
-78 39 -95 7 -16 19 -46 26 -65 32 -84 202 -395 230 -420 9 -9 85 -104 100
-127 8 -11 35 -47 60 -80 49 -63 79 -105 96 -135 6 -11 21 -30 32 -43 11 -13
29 -36 38 -52 19 -29 204 -262 238 -298 10 -11 30 -35 44 -54 22 -29 81 -87
166 -166 11 -11 38 -32 58 -47 20 -15 42 -34 50 -41 45 -45 181 -138 193 -133
9 3 15 0 15 -9 0 -8 10 -21 22 -29 28 -20 49 -21 23 -2 -18 13 -17 14 8 31 26
17 37 45 17 45 -5 0 -10 6 -10 14 0 16 -33 54 -192 216 -111 113 -218 248
-218 274 0 8 5 16 10 18 6 2 -10 23 -34 48 -25 25 -46 53 -46 63 0 23 3 22 37
-10 41 -39 83 -74 83 -68 0 3 21 -15 46 -40 26 -25 55 -45 65 -45 24 0 69 -21
69 -32 0 -4 6 -8 14 -8 7 0 27 -7 42 -15 16 -8 23 -15 15 -15 -8 0 -12 -2 -9
-5 3 -3 17 -1 32 4 14 6 25 7 25 3 -4 -23 4 -32 30 -32 16 0 48 -14 75 -32 25
-18 65 -46 88 -63 24 -16 70 -50 103 -75 72 -55 141 -100 154 -100 5 0 14 -7
21 -15 6 -7 35 -27 64 -44 29 -16 82 -51 118 -78 36 -26 89 -64 116 -83 32
-22 46 -38 39 -42 -7 -4 -8 -8 -2 -9 6 -1 15 -2 20 -3 19 -2 75 -31 75 -38 0
-4 -15 -5 -32 -1 -30 5 -31 4 -18 -10 19 -20 157 -103 232 -141 44 -22 74 -29
130 -31 57 -2 104 -14 218 -54 80 -28 188 -65 240 -82 52 -17 102 -34 111 -39
26 -13 218 -58 341 -80 179 -31 449 -45 571 -30 56 7 127 14 157 16 104 7 335
24 390 29 30 3 131 10 225 15 177 10 290 26 435 61 143 35 423 126 460 150 8
5 22 12 30 15 92 37 140 60 144 71 3 7 -2 13 -10 13 -30 0 0 22 174 126 226
134 199 118 320 199 219 147 289 200 290 219 0 5 6 13 14 17 10 7 10 9 0 9 -7
0 -15 -7 -18 -15 -4 -8 -11 -15 -16 -15 -5 0 -22 -9 -38 -20 -15 -11 -30 -16
-34 -13 -4 4 -4 0 0 -10 5 -13 2 -16 -12 -10 -13 5 -15 3 -9 -7 5 -8 4 -11 -3
-6 -6 4 -30 -7 -53 -24 -23 -16 -44 -28 -46 -26 -5 5 34 46 43 46 5 0 90 67
120 95 6 6 9 16 6 24 -3 10 0 11 16 2 17 -9 21 -7 27 12 4 12 7 26 6 30 -1 5
2 6 7 3 5 -3 18 5 29 17 12 12 39 35 62 50 23 16 39 33 36 38 -4 5 -3 9 2 10
28 2 47 9 52 18 4 5 18 14 32 19 14 6 26 17 26 26 0 8 -4 13 -9 10 -5 -3 -5
-10 -2 -16 5 -7 1 -9 -9 -5 -10 3 -17 2 -17 -3 0 -5 -7 -6 -17 -3 -10 4 -14 2
-9 -5 3 -6 2 -13 -4 -17 -5 -3 -10 -1 -10 6 0 15 -78 -52 -79 -69 -1 -7 -5
-11 -10 -7 -12 7 -75 -37 -168 -118 -193 -166 -187 -162 -123 -76 l24 34 -44
-39 c-25 -21 -51 -46 -57 -54 -14 -17 -29 -10 -18 7 10 17 165 133 165 124 0
-4 4 -3 8 3 4 5 24 20 45 33 20 12 35 26 32 30 -4 8 25 38 55 56 9 6 4 0 -10
-12 -14 -13 -20 -23 -14 -23 6 0 21 11 34 25 13 14 19 25 14 25 -5 0 39 48 96
107 58 58 83 87 55 64 -182 -154 -389 -317 -468 -368 -37 -24 -174 -99 -305
-166 -130 -66 -258 -137 -284 -157 -26 -19 -62 -42 -80 -51 -327 -157 -356
-168 -501 -189 -43 -6 -104 -20 -135 -31 -93 -32 -215 -56 -432 -84 -113 -14
-240 -32 -284 -40 -43 -8 -120 -15 -172 -15 -78 0 -94 3 -94 15 0 9 6 17 13
19 6 2 120 13 252 25 132 12 269 27 305 33 80 13 186 54 194 75 5 11 2 13 -10
9 -9 -3 -28 -9 -42 -12 -15 -3 -51 -15 -80 -25 -62 -22 -65 -23 -56 -8 13 22
-22 29 -151 30 -71 1 -121 3 -110 6 11 2 44 9 73 14 31 6 52 16 52 24 0 15 22
25 56 25 14 0 46 8 72 19 26 10 81 23 122 28 74 10 158 38 147 49 -3 3 -22 1
-44 -5 -21 -6 -65 -11 -98 -11 -77 0 -219 -21 -204 -31 19 -11 -20 -26 -117
-45 -144 -27 -145 -27 -89 -34 100 -11 -8 -20 -163 -14 -107 4 -182 2 -274
-10 -156 -20 -281 -20 -339 -2 -131 43 -131 43 46 38 143 -4 169 -2 202 13 51
25 101 37 145 35 21 0 57 9 80 21 38 19 69 22 263 30 258 11 674 44 683 54 4
4 -29 5 -73 2 -126 -10 -263 -16 -235 -12 14 3 62 10 108 16 45 6 84 14 86 18
2 3 -40 4 -95 3 -76 -3 -106 0 -131 13 -28 14 -55 15 -193 9 -163 -6 -305 5
-332 27 -36 31 -341 64 -548 61 -86 -2 -150 3 -190 12 -35 9 -61 11 -63 5 -2
-5 -16 -9 -30 -9 -44 0 -314 69 -512 132 -110 34 -194 56 -206 52 -42 -11
-455 254 -635 407 -87 74 -199 162 -264 206 -33 22 -85 65 -115 94 -56 55
-256 304 -279 347 -15 29 -7 40 15 21 16 -13 16 -12 4 11 -22 43 -232 333
-280 388 -26 29 -64 83 -86 119 -21 37 -60 96 -86 131 -26 35 -73 116 -105
180 -32 65 -61 119 -65 120 -5 2 -6 8 -3 13 3 5 2 17 -4 26 -5 10 -17 54 -26
98 -9 44 -19 89 -21 100 -2 11 -7 34 -9 50 -3 17 -9 39 -12 50 -3 11 -7 29 -9
40 -5 40 -36 166 -40 162 -2 -2 0 -33 5 -68 7 -50 6 -66 -4 -75 -11 -8 -11
-23 1 -84 13 -69 12 -103 -2 -66 -3 9 -9 14 -14 11 -4 -2 -19 37 -34 88 -29
97 -38 122 -58 149 -14 20 -3 37 13 21 6 -6 22 -42 35 -80 13 -37 23 -57 23
-43 -2 45 1 52 16 46 20 -7 19 14 -4 107 -28 109 -39 172 -56 342 -16 156 -45
323 -69 403 -19 61 -29 452 -15 588 16 161 55 329 115 499 31 88 62 180 69
205 7 25 41 106 75 180 34 74 79 174 99 221 45 105 175 347 208 386 l25 28
-21 -35 c-30 -48 -145 -276 -165 -325 -24 -59 5 -19 51 70 19 39 39 75 43 80
4 6 13 30 20 54 13 48 48 86 85 93 29 6 31 -2 9 -43 -28 -55 -7 -42 27 16 47
79 138 202 185 251 21 22 54 58 73 80 20 23 36 34 39 26 8 -25 30 -10 127 88
55 55 103 100 107 100 15 0 202 142 269 204 37 34 106 88 155 121 49 33 125
87 169 121 118 90 265 173 575 324 85 42 126 70 102 70 -7 0 -29 -7 -49 -15
-72 -30 -43 -6 41 34 61 29 84 45 80 55 -9 24 -29 26 -116 12 -114 -19 -209
-52 -368 -130 -92 -44 -143 -63 -158 -59 -24 6 -153 -68 -209 -120 -25 -23
-33 -27 -33 -15 0 19 138 113 215 147 27 12 65 23 85 25 46 5 227 101 265 142
47 50 97 72 467 210 22 8 114 18 220 24 213 11 246 16 311 41 57 23 117 25
117 5 0 -14 42 -9 230 32 52 11 117 23 144 27 67 9 79 14 66 30 -14 17 178 27
290 15 108 -11 150 -20 281 -59 58 -17 120 -31 136 -31 16 0 63 -9 104 -19
102 -26 189 -36 189 -22 0 6 29 0 71 -16 50 -18 73 -23 81 -15 15 15 -119 80
-290 143 -74 27 -146 58 -161 68 -32 23 -57 30 -276 76 -163 35 -182 37 -465
46 -162 5 -326 6 -365 4 -109 -9 -371 -34 -465 -46 -88 -10 -245 -48 -236 -56
3 -3 20 0 38 6 40 13 231 41 267 40 22 -1 21 -2 -9 -10 -19 -4 -73 -13 -120
-19 -47 -6 -119 -20 -160 -31 -120 -33 -117 -32 -100 -19 20 16 16 14 -165
-60 -82 -34 -161 -63 -175 -64 -14 -2 -61 -21 -106 -44 -44 -22 -106 -48 -137
-57 -31 -9 -57 -20 -57 -24 0 -5 -16 -11 -36 -14 -20 -3 -69 -22 -110 -42 -66
-32 -79 -35 -106 -26 -40 14 -136 4 -168 -18 -14 -10 -32 -21 -40 -25 -38 -18
-255 -195 -252 -205 1 -7 -2 -10 -6 -7 -11 6 -62 -35 -62 -49 0 -16 -143 -124
-165 -125 -6 0 -16 -9 -23 -20 -7 -11 -19 -20 -27 -20 -12 0 -13 5 -3 25 6 13
18 26 27 28 10 3 8 5 -6 6 -23 1 -63 -30 -63 -50 0 -12 -25 -39 -36 -39 -4 0
-58 -52 -120 -115 -62 -63 -121 -115 -131 -115 -15 0 -16 -2 -3 -10 12 -8 11
-10 -7 -10 -14 0 -23 -6 -23 -15 0 -8 -7 -15 -15 -15 -8 0 -19 -9 -25 -20 -9
-16 -8 -20 5 -20 9 0 13 -5 10 -10 -5 -8 -11 -8 -20 0 -10 8 -20 5 -39 -13
-14 -13 -26 -27 -26 -30 0 -4 -34 -46 -80 -97 -21 -24 -40 -52 -46 -72 -3 -9
-12 -14 -20 -11 -10 4 -12 0 -8 -11 4 -10 1 -16 -7 -16 -8 0 -30 -14 -49 -30
-19 -16 -45 -30 -57 -30 -24 0 -32 15 -12 22 7 2 13 15 15 28 2 22 68 132 109
181 7 9 16 27 20 40 4 12 18 34 31 48 13 14 24 29 24 34 0 4 16 30 35 57 19
27 35 53 35 57 1 5 18 26 39 47 21 22 44 57 50 78 7 22 27 52 44 68 18 16 28
32 24 36 -4 5 -12 2 -17 -6 -5 -8 -12 -11 -15 -8 -7 7 6 26 38 56 9 9 17 20
17 25 0 4 9 18 21 30 11 12 34 48 51 80 17 31 35 57 39 57 5 0 15 14 24 30 9
17 22 30 29 30 8 0 17 10 20 23 7 26 87 114 134 146 19 13 31 29 28 37 -3 8 0
11 9 7 8 -3 18 2 21 11 3 9 13 16 21 16 16 0 80 49 66 51 -4 1 -24 0 -43 0
l-35 -2 28 22 c15 11 24 25 21 31 -4 6 -9 6 -13 2 -10 -14 -69 -54 -80 -54 -6
0 -8 -7 -5 -15 5 -11 -3 -17 -25 -21 -17 -4 -31 -10 -31 -13 0 -14 -69 -9 -74
5 -8 20 -28 17 -63 -8 -17 -13 -41 -30 -54 -38 -56 -37 -169 -131 -169 -140 0
-6 -9 -10 -20 -10 -10 0 -24 -9 -30 -20 -6 -12 -21 -20 -36 -20 -22 0 -23 2
-14 20 6 11 7 20 3 20 -4 0 -2 5 5 12 16 16 15 28 -3 28 -8 0 -15 5 -15 11 0
6 10 9 23 7 17 -2 45 21 117 93 95 94 171 163 242 216 21 15 37 34 38 41 0 7
11 17 25 22 14 5 29 20 34 33 9 22 80 77 101 77 5 0 10 5 10 10 0 6 6 10 14
10 8 0 16 4 18 9 9 25 479 317 618 384 89 43 392 157 575 216 72 23 146 47
165 53 19 6 51 15 70 19 19 4 71 17 115 29 44 11 123 29 175 40 52 11 127 29
165 41 39 11 84 23 100 25 17 3 39 9 50 14 11 5 31 10 45 12 41 5 28 20 -30
35 -69 18 -128 20 -257 9 -99 -8 -103 -7 -103 12 0 16 13 23 68 37 37 10 78
24 92 30 14 7 50 20 80 28 204 59 266 82 282 101 16 19 18 19 18 3 0 -10 5
-15 11 -12 6 4 8 13 5 21 -9 24 36 43 148 63 100 18 140 30 105 31 -8 1 2 9
21 19 l35 19 -40 9 c-62 14 -678 10 -755 -5 -36 -7 -114 -22 -175 -33 -111
-21 -254 -51 -332 -71 -29 -7 -47 -7 -55 0 -7 5 -28 13 -46 17 -28 6 -31 9
-21 22 7 8 46 30 86 49 40 19 73 39 73 44 0 6 9 10 19 10 12 0 21 8 23 21 4
31 80 56 388 128 111 25 510 84 650 95 25 2 96 9 159 16 151 16 187 16 451 2
347 -19 479 -32 601 -60 67 -16 74 -20 74 -42 0 -19 7 -25 35 -31 19 -4 53
-16 75 -28 67 -34 134 -63 141 -61 4 1 10 -2 13 -7 3 -4 33 -16 66 -25 144
-39 360 -112 441 -148 75 -34 107 -47 130 -54 11 -3 85 -34 165 -69 130 -56
144 -64 144 -87 0 -20 15 -33 85 -75 109 -64 147 -92 138 -101 -4 -4 -13 -2
-20 4 -15 12 -138 51 -183 57 -16 3 -46 9 -65 14 -19 6 -55 15 -80 22 -25 6
-52 14 -60 18 -8 4 -42 15 -75 25 -33 11 -69 22 -80 26 -108 37 -173 54 -245
60 -47 5 -128 16 -180 24 -112 18 -110 18 -110 8 0 -5 16 -14 35 -22 19 -8 31
-18 27 -22 -5 -5 -21 -2 -37 6 -21 11 -30 12 -40 3 -7 -7 -11 -15 -9 -18 6
-11 -25 -19 -73 -19 -37 0 -44 -3 -39 -16 5 -13 2 -15 -14 -11 -11 3 -20 1
-20 -4 0 -10 8 -14 54 -24 15 -3 26 -8 23 -11 -5 -5 -84 4 -197 22 -28 4 -33
3 -22 -7 6 -7 12 -16 12 -20 0 -7 -87 -18 -142 -19 -16 0 -28 -4 -28 -10 0 -5
12 -12 28 -16 112 -25 148 -35 234 -61 52 -16 72 -41 30 -37 -15 1 -76 5 -137
9 -60 4 -137 11 -170 16 -99 15 -315 23 -315 12 0 -12 33 -23 72 -23 36 0 129
-42 106 -47 -10 -3 -18 -9 -18 -15 0 -7 -20 -9 -60 -5 -37 4 -60 3 -60 -3 0
-6 9 -10 21 -10 11 0 17 -5 14 -10 -8 -13 -75 -10 -75 3 0 5 -17 -8 -38 -30
l-39 -40 -149 -7 c-163 -8 -297 -22 -231 -25 21 0 67 -7 102 -13 51 -10 65
-16 65 -30 0 -11 10 -20 28 -24 15 -3 36 -9 47 -14 11 -5 61 -16 110 -25 50
-9 119 -22 155 -30 36 -8 108 -17 160 -20 103 -7 191 -28 210 -50 7 -8 21 -15
31 -15 11 0 19 -4 19 -9 0 -10 45 -22 90 -26 39 -3 338 -98 390 -124 8 -4 36
-14 63 -22 26 -7 47 -17 47 -20 0 -4 17 -13 38 -20 20 -6 43 -16 50 -22 6 -5
25 -7 42 -4 19 4 29 3 27 -4 -2 -12 8 -19 66 -44 38 -16 65 -13 37 5 -8 5 -12
12 -8 15 7 8 101 -36 111 -53 5 -7 13 -9 19 -6 7 4 8 2 4 -5 -6 -8 0 -10 18
-5 29 7 37 -11 9 -20 -10 -2 -1 -2 20 1 22 3 37 1 37 -5 0 -10 64 -44 108 -57
12 -3 22 -10 22 -15 0 -5 23 -19 50 -31 28 -12 50 -25 50 -28 0 -4 15 -13 33
-20 17 -8 74 -39 124 -68 51 -29 97 -53 102 -53 5 0 11 -4 13 -8 2 -5 35 -28
73 -52 39 -24 95 -62 125 -84 30 -23 74 -54 98 -71 23 -16 64 -45 90 -63 26
-18 74 -57 106 -85 33 -29 63 -51 68 -50 4 2 7 -1 5 -6 -3 -11 335 -346 346
-343 5 1 6 -1 3 -6 -5 -9 43 -50 57 -48 4 1 16 -14 27 -31 18 -30 30 -38 53
-34 5 1 5 -4 1 -10 -5 -9 -2 -10 11 -5 15 5 16 4 5 -9 -7 -9 -9 -15 -4 -14 21
4 34 -2 34 -16 0 -17 45 -49 58 -41 5 3 9 -1 9 -9 0 -8 -5 -12 -11 -9 -6 3 0
-4 14 -15 14 -11 31 -21 38 -21 9 0 11 -7 7 -22 -4 -16 -3 -19 3 -9 8 10 12 9
24 -8 8 -11 18 -18 22 -13 4 4 7 2 6 -3 -4 -21 13 -56 25 -51 8 3 11 -2 8 -14
-3 -10 0 -21 6 -24 7 -5 9 0 5 11 -5 15 -4 15 4 3 6 -8 8 -18 6 -22 -3 -4 -2
-13 2 -19 4 -8 9 -7 15 2 6 10 9 4 9 -17 0 -20 6 -34 16 -38 11 -4 15 -14 12
-30 -4 -17 -1 -23 9 -19 7 3 13 -2 13 -11 0 -9 6 -16 14 -16 8 0 17 -7 20 -16
3 -8 11 -12 17 -8 8 4 9 3 5 -5 -4 -6 -11 -9 -16 -6 -5 3 -12 0 -16 -6 -4 -8
-3 -9 4 -5 8 4 12 0 12 -11 0 -15 2 -16 10 -3 7 12 10 8 10 -15 0 -19 10 -39
26 -54 14 -14 23 -30 19 -39 -5 -13 -3 -13 11 -1 16 13 16 12 5 -10 -7 -13 -9
-21 -4 -18 13 8 41 -26 60 -76 9 -23 19 -44 22 -47 6 -5 20 -35 40 -82 6 -13
26 -58 45 -101 20 -42 36 -83 36 -90 0 -23 27 -87 33 -80 4 3 7 -3 7 -14 0
-11 7 -34 15 -49 23 -44 19 -4 -6 58 -11 29 -28 73 -36 98 -71 216 -222 545
-333 726 -134 220 -214 319 -321 401 -30 23 -76 65 -103 93 -27 28 -72 62
-100 75 -52 24 -161 129 -276 264 -31 36 -73 71 -96 82 -22 11 -90 56 -150
100 -60 44 -154 110 -209 146 -119 79 -109 72 -104 78 5 4 101 -59 279 -185
51 -36 97 -65 103 -65 17 0 148 -89 175 -118 13 -13 31 -38 40 -55 16 -29 99
-120 156 -172 18 -17 29 -21 34 -13 5 8 26 -4 62 -34 30 -25 100 -78 155 -117
133 -95 174 -139 256 -278 63 -106 92 -146 75 -102 -3 8 -2 12 4 9 6 -3 10 -4
10 -1 0 13 -152 238 -220 326 -103 132 -484 517 -597 601 -90 68 -121 97 -65
62 110 -68 567 -519 687 -678 89 -117 285 -424 285 -445 0 -8 34 -71 75 -141
70 -119 94 -168 60 -123 -8 10 -15 15 -15 10 0 -13 91 -169 106 -181 20 -16
129 -263 162 -365 16 -52 44 -156 62 -230 39 -163 72 -283 80 -290 3 -3 13
-45 23 -95 10 -49 27 -103 37 -120 31 -51 80 -359 80 -501 0 -32 3 -54 8 -50
4 4 12 -23 18 -61 30 -176 -4 212 -41 472 -8 60 -15 120 -14 134 0 23 2 22 19
-14 18 -40 19 -40 19 -10 1 39 -35 283 -49 336 -6 22 -9 43 -7 46 3 2 10 -18
17 -45 6 -27 20 -76 31 -108 l19 -59 -6 50 c-4 28 -17 82 -29 120 -12 39 -28
90 -35 115 -7 25 -19 61 -26 80 l-14 35 5 -35 c4 -29 3 -31 -5 -13 -5 13 -11
40 -14 61 -5 41 -21 99 -63 221 -30 88 -217 444 -263 501 -17 21 -19 22 -14 5
3 -11 -12 13 -35 53 -22 40 -52 89 -65 109 -14 20 -23 40 -20 44 2 5 -9 36
-26 70 -17 33 -29 63 -27 65 7 7 70 -117 73 -143 2 -21 70 -143 80 -143 2 0
-7 22 -21 50 -14 27 -25 56 -25 65 0 8 -16 48 -36 88 -20 39 -32 68 -26 62 5
-5 52 -93 103 -195 51 -102 130 -242 175 -313 88 -136 124 -219 222 -517 63
-193 92 -305 126 -490 15 -80 38 -188 52 -240 31 -120 41 -204 49 -403 3 -87
10 -168 15 -180 8 -20 9 -21 10 -2 0 17 2 17 10 5 8 -13 10 -12 10 4 0 20 0
20 15 0 8 -10 15 -27 15 -37 0 -15 3 -16 21 -6 21 11 22 16 16 138 -4 70 -17
182 -31 251 -14 69 -26 160 -26 202 0 109 -25 262 -71 446 -22 86 -51 200 -64
252 -13 52 -44 167 -69 255 -50 173 -50 175 -37 175 8 0 135 -194 183 -281 76
-137 176 -450 221 -693 22 -114 37 -171 46 -174 11 -4 13 8 8 64 -4 38 -9 125
-13 194 -3 69 -12 157 -21 197 -33 158 11 79 62 -111 14 -50 36 -152 50 -226
15 -74 30 -139 35 -146 6 -6 18 -46 29 -90 11 -44 20 -66 20 -51 1 16 -12 86
-29 157 -24 106 -27 132 -17 153 l12 25 12 -26 c13 -26 13 -25 9 14 -4 44 6
75 18 55 8 -13 45 -219 47 -260 1 -15 3 -19 6 -9 2 9 -3 68 -11 131 -8 63 -12
124 -9 135 2 11 -4 68 -16 128 -27 150 -31 183 -22 229 7 38 9 33 39 -90 32
-135 60 -334 87 -615 8 -91 19 -203 25 -250 5 -47 12 -121 15 -165 7 -93 15
-139 22 -131 4 3 10 79 14 168 4 90 11 173 15 186 6 21 7 21 21 5 12 -16 13
-13 8 27 -10 66 -25 120 -34 120 -9 0 -21 -107 -21 -194 0 -33 -2 -57 -5 -54
-14 14 -44 250 -55 428 -9 151 -40 333 -92 530 -31 118 -38 137 -38 104 -1
-27 -36 85 -38 119 -1 15 0 27 2 27 8 0 103 -256 124 -335 31 -116 77 -319 92
-403 8 -52 16 -72 25 -68 18 7 32 -29 55 -146 11 -56 22 -103 24 -105 2 -2 7
13 11 34 6 32 9 35 15 18 12 -29 12 -4 -1 55 -6 27 -14 50 -19 50 -10 0 -45
82 -60 140 -6 25 -22 72 -34 105 -13 33 -34 103 -46 155 -12 52 -38 154 -58
225 -19 72 -36 153 -36 180 -1 36 -13 74 -42 135 -23 47 -47 101 -54 120 -8
19 -20 44 -27 55 -7 11 -13 29 -13 40 0 19 -105 262 -173 400 -14 28 -28 66
-32 85 -13 62 -61 154 -109 210 -26 30 -55 69 -63 85 -9 17 -36 64 -61 105
-25 41 -51 86 -59 100 l-15 25 19 -25 c10 -14 35 -43 57 -65 21 -22 45 -50 54
-63 10 -15 22 -22 34 -19 22 6 33 -14 103 -181 47 -112 77 -163 90 -151 5 6
-26 94 -62 178 -4 9 -2 12 4 8 16 -10 86 -130 85 -147 -1 -14 19 -78 38 -125
4 -11 20 -54 35 -95 16 -41 41 -102 56 -135 15 -33 30 -71 34 -85 17 -57 96
-233 119 -263 13 -17 36 -61 49 -97 l25 -65 -3 60 c-4 77 -22 187 -42 250 -49
154 -267 654 -293 670 -13 8 -94 177 -104 220 -8 32 -111 239 -168 340 -51 89
-203 329 -262 415 -91 131 -74 120 52 -35 31 -38 81 -94 112 -125 30 -30 69
-73 87 -95 41 -53 52 -39 18 24 -31 57 -89 128 -78 96 6 -17 5 -18 -10 -7 -9
8 -23 35 -32 60 -9 28 -39 74 -74 114 -32 36 -73 87 -92 112 -18 25 -38 46
-45 46 -10 0 -46 41 -69 79 -20 35 50 -30 111 -102 36 -43 68 -76 71 -73 6 5
-25 47 -106 146 -33 41 -36 47 -13 26 18 -17 32 -25 32 -20 0 12 -62 73 -73
73 -5 0 -12 3 -15 7 -4 4 -1 4 6 0 24 -14 11 7 -44 70 -31 36 -55 66 -53 68 2
3 33 -31 69 -75 63 -77 310 -319 326 -319 4 0 18 -10 31 -22 14 -13 23 -16 23
-9 0 28 -68 147 -112 198 -27 30 -48 60 -48 66 1 13 6 8 194 -206 71 -81 131
-147 133 -147 15 0 -115 173 -260 349 -96 115 -298 325 -444 459 -51 46 -91
87 -90 91 1 4 -14 22 -33 40 -32 30 -32 31 -5 12 17 -11 41 -30 55 -43 14 -13
20 -19 13 -14 -8 5 -16 7 -19 4 -7 -8 74 -70 87 -66 13 4 -174 198 -191 198
-12 0 -117 76 -240 175 -36 29 -110 83 -165 120 -112 76 -124 85 -109 85 6 0
49 -25 98 -55 48 -30 90 -55 93 -55 9 0 -67 59 -137 106 -36 24 -83 57 -104
74 -22 17 -41 28 -44 26 -2 -3 -13 5 -24 17 -11 12 -16 16 -13 9 6 -11 3 -12
-14 -3 -11 7 -21 14 -21 17 0 3 6 2 13 -2 6 -4 3 2 -7 14 -21 25 -36 31 -16 7
18 -21 3 -19 -39 7 -289 175 -509 320 -526 348 -12 20 13 9 66 -29 80 -57 325
-205 310 -188 -35 43 -343 231 -380 232 -14 0 -25 6 -24 12 2 7 -6 15 -17 18
-11 4 -33 17 -48 30 -15 12 -56 39 -92 58 -107 59 -561 244 -703 287 -72 22
-161 49 -197 61 -36 12 -140 43 -231 69 -182 52 -204 61 -219 90 -18 34 -220
87 -495 129 -152 23 -365 45 -372 38 -2 -3 31 -9 74 -13 43 -4 71 -9 62 -11
-15 -4 -134 7 -411 36 -37 4 -95 4 -128 1 -33 -3 -61 -2 -63 3 -1 4 -90 4
-197 -2 -237 -13 -260 -13 -240 -2 30 17 186 31 359 32 103 1 164 5 146 9 -16
4 81 8 217 9 136 0 249 -2 252 -7 2 -4 28 -6 58 -5 29 1 93 2 142 3 70 0 87 3
78 12 -7 7 -12 16 -12 22 0 18 234 -3 420 -39 102 -19 199 -37 215 -40 l30 -5
-31 14 c-40 19 -368 82 -504 97 -106 11 -166 28 -103 29 17 0 34 4 37 8 8 13
-114 33 -233 38 -194 8 -465 24 -511 30 -37 5 -41 8 -24 14 12 5 25 13 29 19
3 6 36 12 73 12 52 1 60 3 37 9 -47 12 -131 9 -247 -9z m100 -66 c53 -9 104
-18 112 -22 19 -8 -63 -21 -155 -23 -63 -2 -152 -16 -115 -19 8 0 137 -3 287
-5 237 -4 277 -7 310 -23 38 -18 38 -18 -277 -24 -173 -4 -421 -9 -550 -12
-173 -4 -214 -3 -157 4 42 5 121 25 175 44 57 21 116 35 143 35 76 0 199 12
199 20 0 4 -19 10 -41 13 -23 3 -46 10 -52 16 -15 15 3 14 121 -4z m-871 -31
c-3 -3 -12 -4 -19 -1 -8 3 -5 6 6 6 11 1 17 -2 13 -5z m-100 -20 c-3 -3 -12
-4 -19 -1 -8 3 -5 6 6 6 11 1 17 -2 13 -5z m316 -91 c-7 -2 -19 -2 -25 0 -7 3
-2 5 12 5 14 0 19 -2 13 -5z m-60 -10 c-7 -2 -21 -2 -30 0 -10 3 -4 5 12 5 17
0 24 -2 18 -5z m-473 -13 c0 -5 -4 -10 -10 -10 -5 0 -10 5 -10 10 0 6 5 10 10
10 6 0 10 -4 10 -10z m219 -4 c-8 -7 -360 -67 -372 -63 -7 2 31 11 83 21 52 9
129 23 170 30 76 14 127 19 119 12z m438 -2 c-7 -7 -226 -64 -247 -64 -31 0
107 51 160 59 71 11 95 12 87 5z m-444 -31 c-7 -2 -19 -2 -25 0 -7 3 -2 5 12
5 14 0 19 -2 13 -5z m1565 -30 c-10 -2 -28 -2 -40 0 -13 2 -5 4 17 4 22 1 32
-1 23 -4z m-1378 -29 c0 -2 -17 -4 -37 -4 -24 0 -33 3 -25 9 12 7 62 4 62 -5z
m1865 -71 c47 -29 19 -23 -65 13 -54 24 -54 24 -15 18 22 -4 58 -18 80 -31z
m-2849 -19 c-39 -13 -75 -24 -80 -23 -15 1 116 47 134 47 8 0 -16 -10 -54 -24z
m-106 -34 c-8 -5 -19 -10 -25 -10 -5 0 -3 5 5 10 8 5 20 10 25 10 6 0 3 -5 -5
-10z m1019 -4 c-23 -21 -171 -70 -270 -91 -68 -14 -176 -36 -239 -50 -63 -13
-145 -27 -181 -29 -68 -5 -116 -15 -202 -43 -70 -22 -51 -27 28 -8 36 9 68 15
71 13 4 -4 -49 -24 -258 -98 -59 -21 -129 -50 -155 -65 -26 -15 -118 -51 -203
-79 -85 -29 -164 -56 -175 -59 -72 -25 137 66 252 109 171 64 275 113 268 124
-21 35 43 59 290 110 83 17 215 47 295 65 80 18 198 43 262 55 64 11 134 27
155 35 36 13 71 19 62 11z m1948 -106 c68 -22 51 -26 -24 -6 -61 16 -75 24
-67 37 4 6 11 6 20 -2 7 -6 39 -19 71 -29z m-3277 -40 c0 -5 -10 -10 -22 -9
-22 0 -22 1 -3 9 11 5 21 9 23 9 1 1 2 -3 2 -9z m-184 -23 c-11 -7 -33 -24
-50 -39 -37 -33 -27 -35 70 -13 96 23 109 15 46 -24 -54 -34 -62 -54 -24 -59
54 -8 8 -44 -164 -128 -153 -74 -284 -157 -284 -179 0 -31 55 -16 244 69 32
15 60 25 62 24 3 -3 -153 -77 -313 -148 -71 -32 -100 -40 -125 -35 -19 4 -51
0 -76 -9 -128 -45 89 89 378 235 192 97 239 125 218 127 -36 4 -35 19 4 59 17
18 29 35 25 39 -3 3 -34 -1 -69 -10 -78 -19 -88 -20 -88 -3 0 19 26 40 95 76
60 31 88 41 51 18z m3751 -89 c43 0 115 -6 160 -14 46 -9 88 -12 93 -9 10 6
150 -43 150 -53 0 -2 -7 -2 -15 2 -29 11 -217 46 -248 46 -28 0 -30 -2 -16
-15 8 -8 46 -28 84 -45 91 -38 76 -38 -70 4 -66 19 -165 44 -220 57 -79 18
-95 24 -75 30 14 4 37 5 52 2 15 -2 62 -4 105 -5z m863 -123 c174 -76 367
-176 416 -217 28 -24 59 -49 70 -55 10 -7 -36 15 -104 48 -68 34 -126 68 -129
76 -5 13 -259 142 -281 143 -4 0 -25 12 -47 26 -47 30 -39 28 75 -21z m326
-351 c33 -14 95 -39 138 -55 44 -16 112 -48 150 -70 121 -71 346 -211 346
-215 0 -7 -24 7 -182 102 -163 99 -230 134 -255 135 -17 0 -275 127 -262 128
4 1 33 -11 65 -25z m364 -59 c0 -3 -22 6 -50 20 -27 14 -50 28 -50 30 0 3 23
-6 50 -20 28 -14 50 -28 50 -30z m255 -130 c19 -15 18 -15 -12 -1 -17 9 -35
21 -39 27 -8 13 21 -1 51 -26z m-1800 -15 c-3 -5 -13 -10 -21 -10 -8 0 -14 5
-14 10 0 6 9 10 21 10 11 0 17 -4 14 -10z m1865 -26 c0 -2 -9 0 -20 6 -11 6
-20 13 -20 16 0 2 9 0 20 -6 11 -6 20 -13 20 -16z m-1983 0 c-3 -3 -12 -4 -19
-1 -8 3 -5 6 6 6 11 1 17 -2 13 -5z m-72 -14 c3 -5 -1 -10 -10 -10 -9 0 -13 5
-10 10 3 6 8 10 10 10 2 0 7 -4 10 -10z m-4825 -79 c0 -14 -21 -25 -48 -27
-12 0 -31 -9 -42 -19 -11 -10 -23 -15 -27 -12 -8 9 -6 11 47 41 47 27 70 32
70 17z m7100 -47 c0 -2 -9 0 -20 6 -11 6 -20 13 -20 16 0 2 9 0 20 -6 11 -6
20 -13 20 -16z m-7230 -18 c0 -2 -8 -10 -17 -17 -16 -13 -17 -12 -4 4 13 16
21 21 21 13z m7138 -68 c29 -18 85 -57 124 -86 44 -32 78 -50 88 -47 30 9 87
-23 197 -112 148 -119 232 -192 413 -357 193 -176 281 -261 225 -217 -47 37
-59 39 -52 9 5 -20 2 -19 -21 8 -15 18 -49 62 -76 99 -49 65 -208 207 -311
275 -64 42 -96 71 -90 81 6 9 -106 109 -122 109 -18 0 -16 -7 8 -42 12 -16 19
-31 17 -33 -2 -2 -28 18 -58 44 -82 72 -263 207 -323 241 -28 17 -68 44 -87
61 -20 18 -24 24 -10 15 14 -8 49 -30 78 -48z m-7141 6 c0 -7 -6 -10 -14 -7
-7 3 -13 8 -13 12 0 4 6 8 13 8 8 0 14 -6 14 -13z m5729 -273 c17 -10 50 -42
74 -70 24 -28 79 -74 123 -102 61 -39 77 -53 66 -60 -19 -13 18 -43 130 -105
136 -75 268 -171 366 -264 50 -47 125 -114 168 -149 42 -35 77 -66 77 -69 0
-3 -8 2 -17 10 -121 101 -264 222 -328 278 -79 68 -149 114 -355 232 -124 72
-146 88 -128 99 7 4 10 10 8 12 -25 20 -146 100 -185 122 -27 16 -58 35 -68
43 -16 14 -16 16 5 28 31 16 29 16 64 -5z m1964 -167 c62 -65 26 -43 -60 36
-42 39 -48 48 -25 36 17 -8 55 -40 85 -72z m210 -287 c77 -74 140 -139 140
-143 0 -5 -62 52 -137 127 -76 75 -150 143 -165 153 -16 9 -28 21 -28 27 0 16
35 -14 190 -164z m-4 112 c19 -22 19 -22 -3 -8 -13 8 -23 17 -23 21 0 12 6 9
26 -13z m-624 -41 c82 -58 120 -89 158 -133 14 -16 -3 -5 -38 23 -35 29 -92
68 -126 88 -56 32 -100 74 -78 74 5 0 42 -24 84 -52z m691 -67 c16 -14 38 -39
50 -56 l21 -30 -26 23 c-14 13 -33 25 -42 26 -17 2 -136 115 -136 128 0 9 92
-54 133 -91z m-4536 3 c-3 -3 -12 -4 -19 -1 -8 3 -5 6 6 6 11 1 17 -2 13 -5z
m86 -1 c-13 -2 -33 -2 -45 0 -13 2 -3 4 22 4 25 0 35 -2 23 -4z m-185 -10
c-15 -2 -42 -2 -60 0 -18 2 -6 4 27 4 33 0 48 -2 33 -4z m4328 -165 c80 -82
163 -177 193 -223 l53 -80 -56 57 c-30 31 -97 88 -148 127 -123 93 -145 111
-133 110 6 0 21 -6 35 -14 72 -41 58 -5 -37 95 -120 127 -50 72 93 -72z m-171
62 c10 -11 16 -20 13 -20 -3 0 -13 9 -23 20 -10 11 -16 20 -13 20 3 0 13 -9
23 -20z m640 -110 c10 -11 16 -20 13 -20 -3 0 -13 9 -23 20 -10 11 -16 20 -13
20 3 0 13 -9 23 -20z m180 -57 c11 -26 22 -51 24 -57 2 -5 -1 -6 -7 -2 -10 6
-52 86 -52 99 0 21 18 1 35 -40z m-7275 -53 c0 -5 -9 -10 -21 -10 -11 0 -17 5
-14 10 3 6 13 10 21 10 8 0 14 -4 14 -10z m-217 -62 c-13 -6 -23 -15 -23 -20
0 -4 -7 -8 -15 -8 -8 0 -15 8 -15 18 0 13 9 17 38 19 33 2 35 1 15 -9z m-78
-58 c-3 -5 -10 -10 -16 -10 -5 0 -9 5 -9 10 0 6 7 10 16 10 8 0 12 -4 9 -10z
m7532 -177 c97 -143 168 -260 175 -291 11 -42 -12 -10 -51 71 -22 45 -60 105
-86 132 l-46 50 26 -53 c16 -33 23 -61 19 -76 -4 -16 5 -42 27 -82 44 -77 20
-60 -39 29 -93 138 -148 256 -77 162 46 -59 41 -31 -9 54 -42 70 -46 82 -34
100 7 12 13 21 14 21 1 0 37 -53 81 -117z m-692 42 c24 -20 26 -25 12 -25 -11
0 -17 -5 -14 -12 3 -7 14 -37 23 -67 18 -52 18 -53 -1 -67 -18 -13 -18 -15 -1
-51 10 -21 15 -35 11 -31 -22 21 -173 233 -170 237 3 2 29 -15 58 -38 80 -61
94 -54 57 28 -11 24 -20 45 -20 47 0 10 17 1 45 -21z m-7150 -35 c-3 -5 -13
-10 -21 -10 -8 0 -12 5 -9 10 3 6 13 10 21 10 8 0 12 -4 9 -10z m7686 -137
c42 -60 24 -49 -21 13 -18 26 -28 44 -22 40 6 -4 26 -28 43 -53z m-5991 -13
c-8 -5 -19 -10 -25 -10 -5 0 -3 5 5 10 8 5 20 10 25 10 6 0 3 -5 -5 -10z
m-560 -172 c-28 -34 -50 -67 -50 -74 0 -7 -19 -29 -42 -49 -24 -20 -43 -40
-43 -44 0 -5 -38 -42 -85 -83 -47 -41 -127 -119 -178 -172 -52 -54 -96 -95
-99 -92 -3 3 0 12 7 21 7 9 10 18 6 22 -10 10 -125 -106 -234 -236 -53 -63
-98 -109 -100 -102 -2 6 13 33 33 59 60 75 330 337 414 401 108 83 301 264
327 307 19 31 82 104 91 104 2 0 -20 -28 -47 -62z m6129 -18 c38 -61 39 -71 6
-40 -14 13 -25 31 -25 41 0 10 -4 21 -10 24 -10 6 -14 25 -6 25 2 0 18 -23 35
-50z m851 -110 c22 -43 40 -82 40 -86 0 -7 -71 106 -124 196 -5 8 3 4 17 -9
14 -13 44 -59 67 -101z m-967 -14 c23 -28 34 -45 24 -37 -10 8 -37 37 -60 65
-23 28 -34 45 -24 37 10 -8 37 -37 60 -65z m897 -27 c24 -47 62 -145 51 -133
-14 14 -111 206 -111 218 0 13 33 -34 60 -85z m-499 54 c13 -16 12 -17 -3 -4
-10 7 -18 15 -18 17 0 8 8 3 21 -13z m239 -76 c0 -23 -2 -22 -19 10 -10 19 -9
22 4 17 8 -4 15 -15 15 -27z m-582 -59 c29 -42 54 -103 35 -83 -15 15 -75 125
-69 125 3 0 18 -19 34 -42z m604 -13 c11 -15 10 -37 -2 -30 -5 3 -15 15 -20
26 -8 15 -8 19 2 17 7 -2 16 -7 20 -13z m-7632 -131 c0 -3 -5 -15 -11 -26 -9
-16 -13 -18 -20 -7 -4 8 -3 19 3 26 11 13 28 18 28 7z m-46 -76 c-8 -12 -44
-10 -44 3 0 5 8 21 18 34 l17 23 7 -26 c4 -14 5 -29 2 -34z m8181 -33 c20 -44
32 -75 27 -70 -5 6 -26 46 -46 90 -21 44 -33 76 -27 70 5 -5 26 -46 46 -90z
m-8216 16 c12 -8 12 -13 -3 -35 -9 -14 -23 -26 -30 -26 -13 0 -31 -27 -28 -42
1 -4 -7 -12 -18 -18 -11 -6 -20 -17 -20 -24 0 -8 -7 -17 -16 -20 -8 -3 -13
-10 -10 -15 9 -14 -4 -41 -19 -41 -7 0 -15 -8 -19 -17 -3 -10 -11 -27 -18 -37
-7 -11 -28 -44 -46 -73 -18 -29 -39 -53 -47 -53 -8 0 -15 -7 -15 -15 0 -12 -7
-14 -27 -9 -36 9 -40 13 -25 23 17 10 12 81 -5 81 -7 0 -13 -5 -13 -12 0 -6
-3 -8 -7 -4 -4 3 8 20 25 36 18 16 32 36 32 44 0 9 5 16 11 16 6 0 8 -7 5 -16
-3 -8 -3 -26 0 -40 8 -32 40 -32 48 1 4 14 12 24 19 22 7 -1 13 12 15 33 2 19
10 39 18 43 8 4 14 14 14 21 0 6 16 27 35 46 19 19 35 39 35 45 0 12 77 95 88
95 4 0 13 -4 21 -9z m-1237 -93 c-7 -7 -12 -22 -12 -35 0 -16 -4 -21 -15 -17
-8 4 -15 11 -15 17 0 14 30 47 44 47 6 0 5 -5 -2 -12z m868 -24 c0 -8 -4 -12
-10 -9 -5 3 -10 10 -10 16 0 5 5 9 10 9 6 0 10 -7 10 -16z m-820 -14 c0 -5 -4
-10 -10 -10 -5 0 -10 5 -10 10 0 6 5 10 10 10 6 0 10 -4 10 -10z m-84 -30 c15
0 19 -16 5 -24 -14 -9 -45 20 -36 34 6 10 10 11 13 2 2 -7 10 -12 18 -12z m44
-10 c0 -5 -4 -10 -10 -10 -5 0 -10 5 -10 10 0 6 5 10 10 10 6 0 10 -4 10 -10z
m9617 -233 c-2 -7 -26 21 -52 62 -37 58 -48 84 -50 119 -2 45 -1 44 52 -62 30
-59 52 -113 50 -119z m-8837 206 c-1 -15 -30 -46 -37 -40 -3 4 2 16 12 27 19
21 25 24 25 13z m96 -5 c4 -6 2 -14 -4 -16 -7 -2 -12 -9 -12 -16 0 -19 -74
-69 -79 -54 -2 7 1 14 8 16 6 2 11 9 11 15 0 12 50 67 61 67 4 0 11 -5 15 -12z
m-126 -73 c0 -8 -4 -15 -10 -15 -5 0 -10 7 -10 15 0 8 5 15 10 15 6 0 10 -7
10 -15z m7697 -27 c-3 -8 -6 -5 -6 6 -1 11 2 17 5 13 3 -3 4 -12 1 -19z
m-7667 -23 c0 -8 -7 -15 -15 -15 -26 0 -18 20 13 29 1 1 2 -6 2 -14z m95 -35
c3 -5 0 -19 -7 -30 -11 -17 -11 -22 2 -30 12 -7 12 -12 2 -22 -6 -6 -12 -20
-12 -29 0 -10 -9 -21 -20 -24 -11 -3 -20 -11 -20 -16 0 -14 37 -11 44 4 3 6 3
1 0 -13 -4 -14 -11 -26 -15 -28 -5 -2 -9 -19 -9 -37 0 -20 -6 -35 -15 -39 -10
-4 -15 -20 -15 -51 0 -25 -4 -45 -9 -45 -11 0 -31 -78 -31 -119 0 -17 -4 -40
-9 -53 -12 -30 -24 -61 -26 -70 -2 -5 -4 -11 -5 -15 -2 -5 -4 -12 -4 -18 -4
-34 -67 -176 -89 -200 -10 -11 -20 -30 -24 -43 -3 -13 -16 -46 -29 -73 -13
-27 -24 -53 -24 -59 0 -5 -4 -10 -9 -10 -5 0 -12 -12 -16 -27 -7 -28 -28 -82
-46 -115 -5 -10 -9 -27 -9 -38 0 -11 -4 -20 -8 -20 -5 0 -14 -16 -22 -35 -16
-41 -26 -44 -42 -10 -9 19 -7 41 5 97 10 40 22 104 27 141 6 37 17 87 24 110
8 23 24 76 37 117 12 41 26 79 31 84 4 6 8 18 8 28 0 10 5 18 10 18 6 0 10 9
10 19 0 11 4 22 9 25 5 3 14 28 21 55 6 26 22 70 36 96 13 27 24 55 24 62 0 8
18 52 40 99 22 47 40 88 40 91 0 16 35 83 43 83 5 0 7 7 4 14 -4 10 -1 13 7
10 8 -3 16 4 19 18 18 80 53 128 72 98z m8579 -156 c3 -8 2 -12 -4 -9 -6 3
-10 10 -10 16 0 14 7 11 14 -7z m-8314 -92 c-16 -31 -30 -63 -30 -70 0 -7 -4
-10 -10 -7 -5 3 -10 -1 -10 -10 0 -9 -9 -34 -20 -56 -12 -22 -18 -45 -14 -51
4 -7 3 -8 -5 -4 -7 5 -13 -3 -17 -23 -4 -17 -10 -31 -15 -31 -5 0 -9 -6 -9
-13 0 -7 -8 -29 -19 -49 -13 -27 -15 -40 -7 -48 8 -8 7 -10 -4 -5 -11 4 -24
-14 -49 -67 -18 -39 -39 -78 -47 -86 -18 -17 -18 -16 6 58 21 66 37 93 50 85
4 -3 8 5 8 18 0 29 47 150 81 207 4 8 23 44 41 80 18 36 39 72 46 81 8 8 14
20 14 25 0 15 22 34 32 28 4 -3 -5 -31 -22 -62z m7675 8 c14 -27 23 -50 20
-50 -2 0 -16 23 -30 50 -14 28 -23 50 -20 50 2 0 16 -22 30 -50z m55 -104 c0
-12 -5 -7 -19 24 -11 24 -11 24 3 6 9 -11 16 -24 16 -30z m472 -36 c33 -60 70
-154 134 -339 57 -163 70 -217 29 -116 -14 33 -29 69 -34 80 -5 11 -16 40 -26
65 -10 25 -21 54 -26 65 -12 28 -66 167 -95 245 -27 71 -20 71 18 0z m168
-116 c11 -38 20 -78 19 -89 0 -11 -9 14 -20 55 -10 41 -22 84 -25 95 -4 11 -4
17 0 14 4 -4 15 -37 26 -75z m89 -367 c20 -76 41 -139 46 -140 6 -1 13 18 16
43 5 39 6 35 7 -28 2 -65 0 -73 -15 -70 -10 2 -23 15 -30 29 -23 48 -80 273
-86 339 l-6 65 16 -50 c9 -27 32 -112 52 -188z m28 141 c-2 -13 -4 -3 -4 22 0
25 2 35 4 23 2 -13 2 -33 0 -45z m-120 20 c-3 -8 -6 -5 -6 6 -1 11 2 17 5 13
3 -3 4 -12 1 -19z m-8634 -118 c-3 -11 -9 -20 -14 -20 -10 0 -12 33 -3 43 12
12 22 -3 17 -23z m8174 8 c-3 -8 -6 -5 -6 6 -1 11 2 17 5 13 3 -3 4 -12 1 -19z
m22 -68 c0 -9 -4 -8 -9 5 -5 11 -9 27 -9 35 0 9 4 8 9 -5 5 -11 9 -27 9 -35z
m-8179 27 c0 -9 -58 -138 -65 -145 -4 -4 -5 2 0 13 4 11 9 29 10 41 1 11 9 31
18 44 9 14 17 30 17 37 0 7 5 13 10 13 6 0 10 -1 10 -3z m-63 -49 c-3 -8 -6
-5 -6 6 -1 11 2 17 5 13 3 -3 4 -12 1 -19z m8790 -270 c-3 -8 -6 -5 -6 6 -1
11 2 17 5 13 3 -3 4 -12 1 -19z m10 -50 c-3 -8 -6 -5 -6 6 -1 11 2 17 5 13 3
-3 4 -12 1 -19z m10 -40 c-3 -8 -6 -5 -6 6 -1 11 2 17 5 13 3 -3 4 -12 1 -19z
m-9073 -285 c-7 -81 -14 -155 -17 -163 -3 -8 -8 -64 -11 -125 -3 -60 -10 -124
-15 -141 -5 -18 -12 -76 -16 -130 -5 -65 -11 -92 -16 -79 -7 19 -8 19 -8 -1
-1 -12 9 -34 21 -49 12 -16 23 -41 24 -57 1 -16 7 -41 12 -56 18 -47 40 -193
46 -302 4 -66 11 -107 19 -112 10 -7 4 -11 -13 -10 -10 1 -7 -63 4 -71 7 -4 3
-9 -11 -13 -22 -6 -46 -61 -48 -104 0 -19 -41 -25 -61 -10 -7 7 -14 22 -14 34
0 12 -4 26 -8 31 -9 11 -29 90 -37 145 -3 19 -10 53 -16 75 -24 89 -29 139
-35 333 -5 134 -4 206 3 210 18 12 43 70 43 100 0 15 5 33 12 40 6 6 12 26 14
44 9 132 52 405 73 463 22 62 54 117 61 105 3 -5 0 -75 -6 -157z m8754 -303
l0 -45 -9 40 c-4 22 -8 54 -7 70 0 29 0 29 8 5 4 -14 8 -45 8 -70z m-8771
-457 c-3 -10 -5 -4 -5 12 0 17 2 24 5 18 2 -7 2 -21 0 -30z m49 -628 c4 -8 3
-22 0 -31 -5 -13 -9 -14 -21 -4 -8 7 -15 21 -15 31 0 23 28 25 36 4z m155
-138 c-8 -8 -14 -7 -23 2 -10 11 -10 13 0 7 6 -4 12 -2 12 4 0 6 5 8 11 4 8
-4 8 -9 0 -17z m36 -99 c-3 -8 -6 -5 -6 6 -1 11 2 17 5 13 3 -3 4 -12 1 -19z
m2 -118 c1 -13 0 -13 -9 0 -5 8 -9 24 -9 35 l0 20 9 -20 c5 -11 9 -27 9 -35z
m18 -2 c-3 -7 -5 -2 -5 12 0 14 2 19 5 13 2 -7 2 -19 0 -25z m7 -43 c9 -13 16
-29 16 -35 0 -17 -27 -11 -33 8 -2 9 -8 25 -12 35 -11 26 10 21 29 -8z m49
-138 c15 -30 27 -58 27 -63 1 -5 9 -27 20 -49 11 -22 20 -49 20 -60 1 -12 4
-15 7 -7 3 8 13 -2 25 -25 11 -21 24 -40 28 -43 8 -5 48 -79 72 -132 7 -16 16
-28 20 -28 4 0 8 -5 8 -11 0 -12 20 -58 56 -132 13 -26 21 -54 18 -62 -4 -9 0
-15 10 -15 23 0 20 -17 -5 -25 -28 -9 -53 15 -69 68 -8 23 -24 55 -37 70 -13
16 -23 34 -23 42 0 7 -7 18 -16 26 -22 18 -64 104 -114 234 -24 61 -49 124
-56 140 -7 17 -15 44 -19 60 -4 17 -9 38 -12 48 -10 36 14 15 40 -36z m337
-680 c0 -8 -7 -14 -15 -14 -8 0 -15 6 -15 14 0 7 7 13 15 13 8 0 15 -6 15 -13z
m-12 -389 c13 -13 16 -48 4 -48 -4 0 -13 14 -19 30 -12 31 -6 39 15 18z m72
-89 c0 -4 10 -18 23 -29 12 -12 22 -29 22 -38 1 -9 7 -16 14 -14 7 1 10 -2 7
-7 -9 -14 5 -71 16 -65 5 3 6 15 2 26 -3 12 34 -19 84 -68 98 -97 135 -130
151 -135 16 -6 321 -309 321 -320 0 -5 -22 7 -50 26 -27 19 -52 35 -56 35 -9
0 -98 62 -106 74 -4 6 -10 7 -13 4 -4 -4 5 -23 20 -42 15 -19 24 -40 20 -45
-3 -7 0 -8 9 -5 11 4 16 0 16 -10 0 -9 9 -25 20 -36 25 -25 27 -49 2 -27 -10
10 -22 17 -27 17 -4 0 -23 11 -42 26 -26 20 -33 22 -33 9 0 -13 -2 -14 -14 -3
-8 7 -10 16 -5 19 5 3 -2 18 -16 33 -14 15 -30 24 -35 21 -6 -3 -10 1 -10 9 0
9 -3 16 -7 16 -9 0 -33 48 -33 66 0 6 -9 14 -20 17 -11 3 -20 10 -20 16 0 7 8
7 25 1 40 -15 31 9 -28 71 -28 31 -68 76 -87 100 -19 24 -54 62 -77 84 -46 45
-64 92 -42 106 7 4 10 11 6 15 -4 4 -12 3 -19 -4 -8 -8 -15 -7 -27 5 -12 12
-13 17 -3 21 21 7 13 22 -13 22 -24 0 -32 10 -19 22 7 8 44 -3 44 -13z m1370
-1075 c30 -13 47 -23 38 -24 -25 0 -22 -9 8 -32 20 -16 23 -23 12 -29 -24 -16
-36 -10 -97 47 -89 82 -81 89 39 38z m245 -85 c72 -21 166 -53 210 -70 44 -17
175 -51 290 -76 359 -77 381 -82 354 -82 -43 -1 -192 27 -285 54 -67 19 -90
22 -101 14 -17 -15 -52 -5 -218 61 -66 26 -186 68 -267 94 -82 26 -148 49
-148 52 0 4 8 3 18 -1 9 -3 76 -24 147 -46z m1932 -75 c32 -9 76 -19 98 -23
38 -7 37 -7 -25 -12 -36 -3 -83 -2 -105 3 -39 9 -320 2 -360 -9 -11 -3 -17 -2
-13 2 4 4 41 13 84 20 42 8 82 19 87 24 17 17 169 13 234 -5z m-1612 -185 c36
-11 108 -31 158 -44 67 -18 79 -23 42 -19 -53 6 -195 45 -247 68 -48 21 -30
19 47 -5z m282 -75 c-3 -3 -12 -4 -19 -1 -8 3 -5 6 6 6 11 1 17 -2 13 -5z
m133 -30 c14 -8 54 -24 90 -34 36 -11 49 -18 30 -15 -19 3 -82 21 -140 40 -88
29 -97 34 -55 29 28 -3 61 -12 75 -20z m187 -60 c-3 -3 -12 -4 -19 -1 -8 3 -5
6 6 6 11 1 17 -2 13 -5z m71 -11 c-10 -2 -26 -2 -35 0 -10 3 -2 5 17 5 19 0
27 -2 18 -5z m542 -33 c-20 -13 -33 -13 -25 0 3 6 14 10 23 10 15 0 15 -2 2
-10z"/>
<path d="M6952 13170 c-15 -24 -15 -30 -2 -30 6 0 10 7 10 15 0 8 5 15 10 15
6 0 10 5 10 10 0 16 -14 11 -28 -10z"/>
<path d="M6500 10860 c0 -18 4 -29 10 -25 6 3 10 15 10 25 0 10 -4 22 -10 25
-6 4 -10 -7 -10 -25z"/>
<path d="M10908 17283 c6 -2 18 -2 25 0 6 3 1 5 -13 5 -14 0 -19 -2 -12 -5z"/>
<path d="M10951 17276 c2 -2 24 -6 48 -9 29 -4 40 -2 30 4 -13 8 -88 14 -78 5z"/>
<path d="M11285 17256 c39 -12 84 -30 100 -38 39 -20 140 -34 149 -20 10 16
-2 20 -153 52 -167 36 -190 37 -96 6z"/>
<path d="M11940 17127 c8 -8 153 -47 158 -42 2 2 -20 11 -49 19 -77 22 -115
30 -109 23z"/>
<path d="M10553 17093 c9 -2 25 -2 35 0 9 3 1 5 -18 5 -19 0 -27 -2 -17 -5z"/>
<path d="M10878 17093 c12 -2 30 -2 40 0 9 3 -1 5 -23 4 -22 0 -30 -2 -17 -4z"/>
<path d="M11133 17083 c9 -2 25 -2 35 0 9 3 1 5 -18 5 -19 0 -27 -2 -17 -5z"/>
<path d="M11840 17086 c0 -6 141 -38 146 -33 3 2 -24 12 -60 21 -65 16 -86 19
-86 12z"/>
<path d="M11268 17073 c7 -3 16 -2 19 1 4 3 -2 6 -13 5 -11 0 -14 -3 -6 -6z"/>
<path d="M12118 17073 c7 -3 16 -2 19 1 4 3 -2 6 -13 5 -11 0 -14 -3 -6 -6z"/>
<path d="M10783 17053 c15 -2 37 -2 50 0 12 2 0 4 -28 4 -27 0 -38 -2 -22 -4z"/>
<path d="M12008 17043 c7 -3 16 -2 19 1 4 3 -2 6 -13 5 -11 0 -14 -3 -6 -6z"/>
<path d="M12370 17010 c8 -5 22 -9 30 -9 10 0 8 3 -5 9 -27 12 -43 12 -25 0z"/>
<path d="M12140 17000 c8 -5 20 -10 25 -10 6 0 3 5 -5 10 -8 5 -19 10 -25 10
-5 0 -3 -5 5 -10z"/>
<path d="M12860 16735 c14 -8 32 -14 40 -14 8 0 0 6 -19 14 -42 19 -54 19 -21
0z"/>
<path d="M12926 16711 c5 -5 23 -12 39 -16 30 -6 30 -6 -4 10 -38 17 -49 19
-35 6z"/>
<path d="M13024 16691 c4 -5 0 -12 -6 -14 -10 -4 -10 -6 1 -6 7 -1 54 -19 103
-41 126 -57 134 -44 11 18 -106 54 -118 58 -109 43z"/>
<path d="M11708 15983 c7 -3 16 -2 19 1 4 3 -2 6 -13 5 -11 0 -14 -3 -6 -6z"/>
<path d="M9895 15780 c-85 -13 -171 -33 -158 -37 16 -6 245 25 275 36 19 8 16
10 -22 9 -25 0 -67 -4 -95 -8z"/>
<path d="M9800 15629 c-111 -19 -316 -72 -337 -87 -31 -23 -29 -36 5 -27 15 4
50 9 77 12 28 2 73 8 100 13 28 4 95 16 150 25 200 33 205 35 205 56 0 17 -7
19 -77 18 -43 -1 -98 -5 -123 -10z"/>
<path d="M6533 15483 c4 -3 0 -18 -9 -32 l-17 -26 26 24 c26 23 28 41 5 41 -6
0 -8 -3 -5 -7z"/>
<path d="M6280 15149 c0 -5 5 -7 10 -4 6 3 10 8 10 11 0 2 -4 4 -10 4 -5 0
-10 -5 -10 -11z"/>
<path d="M10405 14980 c-100 -6 -94 -6 65 -7 188 -2 216 -4 355 -33 50 -11
134 -26 189 -35 61 -9 135 -30 195 -54 128 -51 302 -113 306 -109 4 4 -201 92
-291 124 -61 23 -276 71 -439 99 -98 17 -235 22 -380 15z"/>
<path d="M11636 14863 c21 -16 31 -16 39 -3 4 6 -1 7 -11 3 -10 -4 -15 -2 -11
3 3 5 -3 10 -14 10 -19 0 -19 -1 -3 -13z"/>
<path d="M11570 14865 c0 -7 30 -13 34 -7 3 4 -4 9 -15 9 -10 1 -19 0 -19 -2z"/>
<path d="M11789 14828 c37 -10 83 -38 64 -38 -6 0 -20 -3 -30 -6 -15 -5 -16
-4 -3 6 13 10 12 11 -3 6 -10 -3 -24 -6 -30 -7 -7 0 -1 -5 13 -11 14 -6 28
-10 32 -10 4 1 28 -7 53 -18 26 -11 55 -20 66 -20 10 0 19 -4 19 -10 0 -5 17
-10 38 -10 20 0 69 -12 107 -26 39 -14 78 -26 88 -26 9 1 17 -4 17 -9 0 -6 4
-8 9 -5 5 4 11 2 13 -2 5 -14 162 -97 177 -94 8 2 10 -1 5 -9 -5 -9 -2 -10 10
-6 10 4 15 3 11 -3 -3 -6 -1 -11 4 -11 20 -3 26 -5 49 -17 12 -7 28 -10 34 -6
6 4 8 3 5 -4 -4 -6 12 -17 40 -26 27 -9 88 -39 136 -67 49 -28 90 -49 93 -47
2 3 -30 33 -71 68 -41 34 -75 69 -75 76 0 7 -9 16 -21 19 -11 4 -50 27 -86 52
-87 59 -176 107 -271 145 -42 16 -100 41 -128 53 -75 34 -120 45 -209 52 -44
3 -88 9 -97 14 -9 5 -34 9 -55 8 l-38 -1 34 -10z"/>
<path d="M11680 14791 c0 -5 7 -12 16 -15 14 -5 15 -4 4 9 -14 17 -20 19 -20
6z"/>
<path d="M7875 14769 c-4 -6 -5 -13 -2 -16 7 -7 27 6 27 18 0 12 -17 12 -25
-2z"/>
<path d="M7655 14716 c-25 -25 -63 -53 -85 -62 -22 -10 -40 -21 -40 -26 0 -15
48 -8 54 8 3 8 10 13 15 10 5 -4 20 7 33 23 14 16 34 32 46 35 12 4 22 14 22
21 0 8 8 19 18 24 16 10 16 10 0 11 -10 0 -38 -20 -63 -44z"/>
<path d="M11760 14750 c8 -5 20 -10 25 -10 6 0 3 5 -5 10 -8 5 -19 10 -25 10
-5 0 -3 -5 5 -10z"/>
<path d="M11815 14730 c-7 -11 22 -26 32 -16 4 3 -1 6 -11 6 -9 0 -14 5 -11
10 3 6 4 10 1 10 -3 0 -8 -5 -11 -10z"/>
<path d="M7840 14719 c0 -5 5 -7 10 -4 6 3 10 8 10 11 0 2 -4 4 -10 4 -5 0
-10 -5 -10 -11z"/>
<path d="M11852 14703 c-9 -3 -4 -12 15 -29 32 -28 48 -31 39 -8 -3 8 -2 13 3
9 11 -6 8 22 -4 32 -4 4 -5 2 -1 -4 8 -15 -10 -18 -19 -3 -7 11 -13 11 -33 3z
m33 -13 c3 -5 2 -10 -4 -10 -5 0 -13 5 -16 10 -3 6 -2 10 4 10 5 0 13 -4 16
-10z"/>
<path d="M11927 14666 c-4 -10 -7 -20 -7 -22 0 -4 100 -54 108 -54 14 0 -60
50 -74 51 -18 0 -17 1 1 9 16 7 17 9 3 9 -9 1 -18 6 -20 13 -3 7 -7 5 -11 -6z"/>
<path d="M14970 14607 c0 -10 231 -296 259 -322 21 -18 21 -16 -3 25 -14 25
-26 52 -26 60 0 9 -52 67 -115 130 -63 63 -115 111 -115 107z"/>
<path d="M12040 14586 c0 -3 9 -10 20 -16 11 -6 20 -8 20 -6 0 3 -9 10 -20 16
-11 6 -20 8 -20 6z"/>
<path d="M12730 14446 c0 -2 7 -7 16 -10 8 -3 12 -2 9 4 -6 10 -25 14 -25 6z"/>
<path d="M12598 14423 c7 -3 16 -2 19 1 4 3 -2 6 -13 5 -11 0 -14 -3 -6 -6z"/>
<path d="M12820 14375 c19 -19 36 -35 39 -35 3 0 -10 16 -29 35 -19 19 -36 35
-39 35 -3 0 10 -16 29 -35z"/>
<path d="M12677 14389 c7 -7 15 -10 18 -7 3 3 -2 9 -12 12 -14 6 -15 5 -6 -5z"/>
<path d="M12870 14316 c0 -9 0 -19 0 -23 0 -4 6 -8 15 -9 19 -3 19 20 0 36
-12 10 -15 10 -15 -4z"/>
<path d="M7685 14130 c-3 -5 3 -10 14 -10 12 0 21 5 21 10 0 6 -6 10 -14 10
-8 0 -18 -4 -21 -10z"/>
<path d="M14385 13551 c5 -17 4 -21 -5 -16 -6 4 0 -15 14 -42 13 -27 31 -50
40 -50 11 0 8 14 -16 61 -34 68 -44 82 -33 47z m44 -96 c0 -5 -8 6 -19 25 -11
19 -19 40 -19 45 0 6 8 -6 19 -25 11 -19 19 -39 19 -45z"/>
<path d="M14484 13326 c25 -45 79 -151 121 -235 42 -84 79 -151 82 -147 4 3
-19 58 -51 121 -31 64 -54 120 -51 125 9 15 -64 132 -77 123 -8 -4 -9 0 -5 11
5 11 3 15 -5 10 -7 -5 -9 -2 -6 7 8 20 -16 62 -36 65 -13 2 -6 -17 28 -80z
m-5 44 c11 -24 11 -24 -3 -6 -9 11 -16 24 -16 30 0 12 5 7 19 -24z m98 -177
c-5 -5 -67 100 -67 113 0 5 16 -17 35 -50 20 -32 34 -60 32 -63z"/>
<path d="M7244 12658 c-9 -18 -52 -101 -95 -184 -44 -83 -79 -155 -79 -160 1
-5 9 7 20 26 11 19 19 28 20 20 0 -12 3 -11 11 3 5 9 7 22 4 27 -3 6 -2 10 2
10 12 0 148 278 140 286 -3 3 -13 -9 -23 -28z"/>
<path d="M7096 12615 c-9 -26 -7 -32 5 -12 6 10 9 21 6 23 -2 3 -7 -2 -11 -11z"/>
<path d="M7043 12493 c-23 -49 -44 -99 -48 -113 -8 -25 -8 -25 14 -6 11 11 21
23 21 28 0 5 11 25 23 46 19 29 44 132 32 132 -1 0 -20 -39 -42 -87z"/>
<path d="M14784 12535 c2 -11 10 -44 16 -73 7 -29 14 -51 16 -49 6 6 -17 109
-28 127 -7 12 -8 11 -4 -5z"/>
<path d="M15251 12453 c8 -87 27 -161 93 -370 25 -79 59 -214 76 -300 17 -87
36 -183 43 -213 l11 -55 6 45 c5 43 5 44 17 18 6 -14 17 -54 24 -89 13 -69 28
-109 29 -76 0 10 5 15 10 12 17 -10 11 22 -19 113 -52 153 -81 258 -102 363
-44 228 -126 523 -171 612 -18 35 -24 15 -17 -60z"/>
<path d="M7086 12290 c-10 -28 -16 -53 -13 -56 7 -7 40 82 35 96 -2 6 -12 -12
-22 -40z"/>
<path d="M7006 12285 c-9 -14 -13 -25 -10 -25 4 0 0 -8 -8 -17 -21 -26 -43
-77 -68 -161 -18 -63 -19 -74 -7 -87 13 -12 16 -12 20 5 3 10 0 21 -6 23 -13
4 -2 37 13 37 5 0 10 -9 10 -21 0 -12 4 -17 11 -13 6 3 8 16 5 28 -3 11 -1 28
4 36 13 20 13 -33 1 -78 -6 -20 -6 -30 0 -27 5 4 9 15 9 26 0 10 4 19 8 19 5
0 7 15 5 33 -3 24 -2 29 6 17 6 -8 11 -10 11 -4 0 6 -7 17 -15 24 -13 10 -12
17 6 52 11 22 16 37 10 34 -5 -4 -14 1 -19 10 -7 12 -2 29 16 61 26 48 25 70
-2 28z"/>
<path d="M7055 12289 c-4 -6 -5 -12 -2 -15 2 -3 7 2 10 11 7 17 1 20 -8 4z"/>
<path d="M7051 12193 c-7 -8 -11 -16 -8 -19 2 -2 10 2 17 11 17 20 9 27 -9 8z"/>
<path d="M7020 12139 c0 -5 5 -7 10 -4 6 3 10 8 10 11 0 2 -4 4 -10 4 -5 0
-10 -5 -10 -11z"/>
<path d="M14767 12113 c-4 -3 -7 -11 -7 -17 0 -6 5 -5 12 2 6 6 9 14 7 17 -3
3 -9 2 -12 -2z"/>
<path d="M14775 12080 c-3 -5 -1 -10 6 -10 7 0 5 -9 -7 -22 l-19 -23 22 18
c12 11 19 25 16 33 -6 17 -10 17 -18 4z"/>
<path d="M6890 11981 c0 -6 4 -13 10 -16 6 -3 7 1 4 9 -7 18 -14 21 -14 7z"/>
<path d="M14795 11917 c0 -81 -12 -150 -24 -142 -5 3 -11 -1 -14 -9 -3 -8 0
-17 8 -20 14 -5 28 8 38 34 4 11 6 9 6 -5 1 -16 3 -17 11 -5 7 12 9 11 8 -5
-1 -11 4 -44 11 -73 10 -39 16 -51 24 -43 9 9 8 17 -1 32 -7 11 -10 24 -7 29
3 5 1 11 -3 14 -5 3 -10 26 -10 52 -2 52 -26 176 -39 198 -5 9 -8 -16 -8 -57z"/>
<path d="M6904 11938 c-5 -7 -9 -19 -10 -26 -2 -8 -6 -21 -9 -30 -6 -15 -8
-15 -16 3 -7 16 -8 14 -4 -8 4 -21 2 -27 -6 -21 -9 5 -10 2 -6 -9 3 -10 3 -17
-2 -17 -5 0 -11 -9 -14 -20 -3 -11 -1 -18 4 -14 5 3 9 -2 9 -10 0 -21 16 -21
24 0 8 22 8 26 -4 19 -16 -10 -12 11 5 25 8 7 12 17 9 22 -4 6 -2 13 4 17 7 4
13 18 14 31 2 14 7 28 13 32 5 4 7 10 3 13 -3 4 -10 0 -14 -7z"/>
<path d="M6871 11924 c0 -11 3 -14 6 -6 3 7 2 16 -1 19 -3 4 -6 -2 -5 -13z"/>
<path d="M14675 11893 c-13 -13 -16 -27 -11 -61 3 -25 6 -66 7 -91 1 -42 1
-44 9 -17 5 16 6 34 3 39 -3 6 -1 7 5 3 7 -4 12 0 13 11 0 14 2 15 6 3 4 -8
21 -28 39 -44 27 -24 32 -34 27 -55 -10 -42 -15 -45 -30 -17 -31 59 -43 15
-42 -148 l1 -111 12 72 c7 40 15 75 19 79 3 4 22 -1 42 -10 35 -17 75 -76 75
-113 0 -10 5 -25 10 -33 8 -13 11 -13 19 -1 7 11 11 10 19 -5 5 -11 13 -34 17
-52 4 -18 9 -31 12 -28 10 9 -38 196 -49 190 -14 -9 -24 9 -49 88 -12 37 -28
73 -35 79 -9 8 -10 18 -2 40 5 16 14 26 19 23 5 -3 9 -1 9 5 0 20 -19 21 -30
1 -10 -19 -12 -19 -29 -3 -10 10 -26 42 -35 71 -17 50 -34 75 -21 30 4 -16 3
-19 -3 -9 -8 11 -10 11 -15 0 -3 -8 -3 3 -1 25 2 21 7 42 10 47 9 15 -3 10
-21 -8z"/>
<path d="M6909 11803 c-13 -16 -12 -17 4 -4 16 13 21 21 13 21 -2 0 -10 -8
-17 -17z"/>
<path d="M6781 11642 c-13 -32 -25 -70 -26 -87 -2 -16 -6 -38 -10 -48 -4 -9
-5 -27 -2 -39 3 -12 2 -30 -4 -40 -5 -10 -6 -18 -1 -18 5 0 7 -16 6 -35 -2
-20 1 -35 8 -35 6 0 8 10 4 24 -3 14 -1 28 4 31 6 4 10 28 10 53 -3 69 7 137
25 193 23 69 15 69 -14 1z"/>
<path d="M6966 11643 c-6 -14 -5 -15 5 -6 7 7 10 15 7 18 -3 3 -9 -2 -12 -12z"/>
<path d="M14866 11615 c3 -11 10 -33 14 -50 7 -27 8 -28 9 -5 0 14 -7 36 -15
50 -10 17 -13 18 -8 5z"/>
<path d="M15754 11535 c-3 -8 -1 -27 4 -42 10 -27 10 -26 11 15 1 43 -5 54
-15 27z"/>
<path d="M15782 11433 c-1 -21 -8 -41 -17 -45 -10 -6 -15 -23 -14 -51 1 -40 2
-40 9 -12 5 19 8 23 9 11 1 -12 4 -16 10 -10 12 13 24 144 13 144 -5 0 -9 -17
-10 -37z"/>
<path d="M6840 11435 c0 -8 2 -15 4 -15 2 0 6 7 10 15 3 8 1 15 -4 15 -6 0
-10 -7 -10 -15z"/>
<path d="M6781 11414 c0 -11 3 -14 6 -6 3 7 2 16 -1 19 -3 4 -6 -2 -5 -13z"/>
<path d="M6819 11340 c-2 -36 -2 -78 -1 -95 1 -25 0 -27 -8 -10 -11 26 -12 24
-15 -66 -1 -41 -6 -85 -9 -97 -4 -13 -3 -22 2 -22 6 0 12 6 14 12 3 7 7 3 10
-9 5 -17 2 -21 -13 -18 -16 3 -18 0 -13 -23 4 -15 10 -32 15 -37 4 -6 2 -21
-5 -34 -12 -22 -14 -22 -21 -5 -13 31 -15 45 -17 157 -2 72 -5 98 -11 80 -10
-37 -2 -220 11 -236 6 -6 12 -23 14 -37 2 -19 10 -26 31 -28 23 -3 27 0 27 20
0 18 -2 20 -10 8 -8 -13 -10 -12 -10 3 0 9 4 17 9 17 4 0 8 46 8 103 0 57 2
108 6 113 3 6 2 16 -4 24 -12 20 -11 33 2 25 6 -4 10 -1 8 6 -1 8 -1 31 0 53
1 31 4 36 14 27 21 -16 25 -5 16 42 -4 26 -3 47 3 55 16 18 -2 15 -25 -5 -11
-10 -18 -13 -15 -8 3 6 2 19 -3 30 -5 14 -8 0 -10 -45z"/>
<path d="M6841 11384 c0 -11 3 -14 6 -6 3 7 2 16 -1 19 -3 4 -6 -2 -5 -13z"/>
<path d="M14702 11380 c0 -14 2 -19 5 -12 2 6 2 18 0 25 -3 6 -5 1 -5 -13z"/>
<path d="M14747 11387 c-13 -33 -19 -145 -8 -151 8 -5 11 13 12 56 1 61 1 62
14 33 11 -25 14 -27 20 -12 8 20 31 23 38 5 3 -7 6 -3 6 10 1 13 -6 25 -16 29
-10 3 -28 15 -39 25 -17 15 -23 16 -27 5z"/>
<path d="M6753 11275 c0 -33 2 -45 4 -27 2 18 2 45 0 60 -2 15 -4 0 -4 -33z"/>
<path d="M15762 11265 c0 -16 2 -22 5 -12 2 9 2 23 0 30 -3 6 -5 -1 -5 -18z"/>
<path d="M14931 11234 c0 -11 3 -14 6 -6 3 7 2 16 -1 19 -3 4 -6 -2 -5 -13z"/>
<path d="M6852 11220 c0 -14 2 -19 5 -12 2 6 2 18 0 25 -3 6 -5 1 -5 -13z"/>
<path d="M14800 11200 c0 -5 5 -10 10 -10 6 0 10 5 10 10 0 6 -4 10 -10 10 -5
0 -10 -4 -10 -10z"/>
<path d="M6852 11170 c0 -14 2 -19 5 -12 2 6 2 18 0 25 -3 6 -5 1 -5 -13z"/>
<path d="M6842 11090 c0 -19 2 -27 5 -17 2 9 2 25 0 35 -3 9 -5 1 -5 -18z"/>
<path d="M15096 10850 c4 -47 10 -155 13 -240 7 -164 6 -166 29 33 5 48 4 67
-4 67 -7 0 -14 35 -18 96 -4 53 -11 104 -17 113 -7 11 -8 -10 -3 -69z"/>
<path d="M15538 10877 c-4 -32 -11 -64 -16 -70 -5 -7 -15 -35 -22 -64 -8 -29
-17 -50 -22 -47 -10 6 -14 -182 -9 -390 3 -109 1 -147 -8 -142 -14 9 -14 -7 0
-21 8 -8 8 -13 0 -17 -6 -4 -11 -17 -10 -29 0 -12 3 -16 6 -9 2 6 9 9 15 6 7
-5 9 5 6 27 -4 22 0 38 10 49 14 13 15 13 10 -2 -4 -9 -3 -29 2 -45 7 -25 8
-22 9 21 1 27 5 63 10 80 23 74 40 178 46 271 3 55 10 129 15 165 12 88 11
120 -6 113 -14 -5 -22 29 -26 112 l-3 50 -7 -58z m-46 -542 c2 -50 1 -103 -2
-120 -3 -16 -7 26 -8 94 -2 142 5 159 10 26z"/>
<path d="M6809 10818 c-2 -132 3 -247 10 -276 1 -1 7 3 15 10 13 12 11 42 -3
34 -3 -2 -6 58 -5 135 1 76 -2 139 -7 139 -5 0 -9 -19 -10 -42z"/>
<path d="M15609 10659 c-4 -20 -8 -50 -13 -84 -3 -30 -2 -35 6 -22 5 10 7 25
4 33 -3 8 1 17 9 20 8 3 13 14 12 25 -3 17 -16 38 -18 28z"/>
<path d="M15770 10531 c0 -12 5 -21 10 -21 6 0 10 6 10 14 0 8 -4 18 -10 21
-5 3 -10 -3 -10 -14z"/>
<path d="M6826 10465 c11 -119 21 -136 22 -35 0 54 -3 86 -8 75 l-7 -20 -6 20
c-3 11 -4 -7 -1 -40z"/>
<path d="M15767 10473 c-4 -3 -1 -13 6 -21 10 -13 9 -15 -5 -10 -10 4 -19 1
-22 -9 -4 -11 -2 -14 9 -10 8 4 19 -1 24 -11 7 -13 9 -8 7 21 -3 40 -9 51 -19
40z"/>
<path d="M15631 10434 c0 -11 3 -14 6 -6 3 7 2 16 -1 19 -3 4 -6 -2 -5 -13z"/>
<path d="M15641 10393 c-1 -24 13 -31 25 -11 4 6 3 8 -4 4 -6 -3 -13 2 -15 11
-4 14 -5 13 -6 -4z"/>
<path d="M15783 10355 c0 -22 2 -30 4 -17 2 12 2 30 0 40 -3 9 -5 -1 -4 -23z"/>
<path d="M15732 10360 c0 -14 2 -19 5 -12 2 6 2 18 0 25 -3 6 -5 1 -5 -13z"/>
<path d="M15651 10334 c0 -11 3 -14 6 -6 3 7 2 16 -1 19 -3 4 -6 -2 -5 -13z"/>
<path d="M6854 10315 c-4 -8 -3 -27 1 -43 4 -15 9 -38 11 -51 3 -25 11 -37 19
-29 3 2 -2 30 -10 62 -8 32 -13 62 -9 67 3 5 3 9 -1 9 -3 0 -8 -7 -11 -15z"/>
<path d="M15595 10287 c-4 -16 -8 -46 -9 -67 -1 -41 -15 -33 -17 10 -1 20 -2
21 -6 5 -2 -11 -11 -48 -19 -82 -8 -34 -14 -65 -13 -70 1 -4 0 -15 -4 -23 -3
-8 -18 -69 -33 -135 -28 -124 -80 -293 -95 -309 -5 -6 -9 -16 -9 -23 0 -8 -7
-30 -16 -51 l-15 -37 -14 38 c-7 21 -11 48 -9 60 2 12 -5 4 -16 -18 -11 -22
-20 -48 -20 -57 0 -9 -5 -20 -11 -23 -6 -4 -8 -14 -5 -22 3 -8 2 -12 -2 -9 -4
3 -14 -4 -21 -16 -9 -14 -9 -18 -1 -13 9 6 9 2 1 -13 -16 -31 -31 -36 -32 -13
-2 36 -4 40 -18 53 -12 11 -13 10 -7 -5 3 -11 9 -31 11 -45 6 -26 5 -26 -10 3
-8 17 -13 22 -10 12 7 -25 -5 -43 -16 -26 -6 10 -9 6 -9 -12 0 -15 -11 -47
-25 -70 l-25 -44 -1 40 c-1 22 -1 46 0 54 2 7 -2 10 -8 6 -6 -3 -11 -1 -11 6
0 7 -6 4 -14 -6 -8 -11 -12 -23 -9 -28 2 -4 -13 -38 -35 -75 -21 -37 -74 -137
-117 -222 -99 -196 -141 -274 -177 -327 -15 -23 -28 -45 -28 -50 0 -4 -9 -14
-20 -21 -12 -7 -18 -17 -15 -22 3 -6 2 -10 -3 -10 -5 0 -15 -15 -23 -32 -7
-18 -15 -35 -18 -38 -10 -8 -51 -69 -51 -74 0 -5 -80 -124 -103 -154 -7 -8
-40 -44 -74 -80 -35 -36 -63 -69 -63 -73 0 -5 -24 -37 -52 -71 -29 -35 -65
-79 -80 -98 -32 -43 -211 -230 -220 -230 -9 0 -80 -64 -223 -198 -62 -58 -99
-87 -147 -111 -16 -8 -28 -18 -28 -23 0 -4 -7 -8 -16 -8 -8 0 -45 -24 -82 -53
-37 -30 -87 -66 -112 -82 -25 -15 -47 -31 -50 -34 -6 -7 -32 -23 -73 -46 -15
-9 -65 -44 -110 -79 -137 -104 -294 -189 -374 -203 -12 -2 -41 -15 -65 -28
-24 -14 -51 -25 -61 -25 -10 0 -16 -4 -13 -8 3 -5 -19 -16 -49 -26 -30 -9 -57
-21 -60 -26 -11 -18 -96 -53 -106 -43 -6 6 -4 14 6 23 23 19 18 32 -7 18 -13
-7 -25 -16 -28 -19 -3 -4 -30 -15 -60 -25 -30 -9 -72 -28 -92 -41 -21 -13 -48
-23 -60 -23 -28 0 -55 -16 -45 -27 5 -4 13 -1 18 7 9 13 10 13 6 0 -2 -8 -15
-15 -28 -16 -13 0 -33 -4 -44 -8 -39 -15 -60 -23 -85 -33 -14 -6 -45 -17 -70
-26 -25 -8 -61 -21 -80 -28 -19 -6 -44 -15 -55 -19 -48 -17 -139 -66 -143 -77
-5 -16 82 -18 137 -4 213 56 251 63 251 53 0 -10 -115 -92 -129 -92 -5 0 -22
-7 -37 -15 -16 -8 -37 -15 -46 -15 -9 0 -20 -4 -23 -10 -3 -5 -17 -10 -31 -10
-13 0 -24 -4 -24 -8 0 -11 -63 -36 -145 -57 -38 -10 -72 -21 -75 -25 -4 -6
-126 -37 -210 -54 -14 -3 -52 -12 -85 -20 -52 -13 -115 -22 -285 -40 -25 -3
-76 -10 -115 -15 -92 -13 -145 -14 -495 -15 -286 0 -614 9 -629 18 -4 3 -54
10 -111 16 -100 11 -138 18 -330 60 -47 11 -157 33 -245 51 -185 36 -233 52
-448 143 -87 37 -175 70 -195 73 -21 3 -46 11 -57 16 -11 6 -27 12 -35 13 -8
2 -23 7 -35 12 -88 40 -98 42 -146 36 -29 -4 -60 -2 -72 4 -12 5 -62 29 -112
53 -49 24 -97 44 -105 46 -8 1 -46 18 -84 38 -38 19 -77 35 -87 35 -11 0 -19
5 -19 10 0 6 -9 10 -20 10 -11 0 -20 4 -20 9 0 4 -20 14 -45 21 -24 7 -50 19
-56 26 -6 8 -17 14 -23 14 -6 0 -51 20 -99 45 -120 61 -134 59 -71 -9 35 -38
40 -63 7 -34 -23 20 -60 31 -74 22 -8 -4 -7 -9 2 -16 10 -7 4 -7 -16 -3 -30 7
-63 29 -78 53 -11 17 -27 15 -27 -3 0 -8 5 -15 10 -15 6 0 10 -6 10 -13 0 -13
80 -87 104 -96 14 -6 36 -28 36 -37 0 -5 17 -25 37 -46 36 -37 37 -38 12 -38
-14 0 -30 5 -36 11 -6 6 -17 9 -25 6 -9 -4 -5 -8 10 -12 12 -4 22 -11 22 -15
0 -9 140 -116 195 -150 22 -13 42 -27 45 -30 5 -6 58 -38 168 -102 26 -14 48
-31 50 -37 2 -6 13 -11 23 -11 11 0 17 -4 14 -10 -6 -9 10 -14 42 -13 7 0 11
-4 10 -11 -1 -6 14 -12 33 -14 19 -2 40 -8 45 -13 7 -7 4 -8 -7 -4 -10 4 -18
3 -18 -3 0 -13 55 -32 92 -32 17 0 27 -4 23 -10 -3 -6 2 -13 12 -16 10 -3 50
-20 88 -39 39 -18 85 -40 104 -49 19 -9 41 -16 50 -16 9 0 30 -8 47 -19 17
-10 41 -22 55 -26 24 -8 75 -29 157 -66 23 -10 48 -19 55 -19 6 0 24 -6 39
-14 15 -8 51 -21 81 -30 30 -9 67 -23 83 -31 16 -8 38 -15 50 -15 11 0 24 -4
30 -8 34 -29 426 -148 599 -182 38 -8 263 -56 460 -98 50 -11 146 -25 215 -31
69 -6 153 -14 188 -17 122 -11 63 -22 -213 -40 -104 -7 -136 -15 -122 -28 7
-7 20 -15 30 -19 9 -3 17 -10 17 -16 0 -27 193 -51 515 -62 165 -5 311 -12
325 -13 14 -2 35 -4 48 -5 12 0 22 -6 22 -12 0 -6 -8 -9 -19 -6 -10 2 -25 -3
-33 -12 -10 -12 -50 -23 -119 -35 -57 -9 -129 -21 -159 -26 -155 -26 -299 -34
-650 -34 -206 -1 -388 2 -405 6 -16 3 -57 9 -90 12 -67 5 -243 36 -374 65 -96
21 -190 38 -266 46 -27 4 -59 10 -70 14 -11 5 -47 15 -80 24 -33 8 -105 29
-160 47 -55 17 -122 38 -150 46 -112 34 -143 44 -209 68 -38 14 -75 31 -81 36
-7 6 -17 10 -21 8 -15 -4 -88 24 -114 44 -15 12 -33 17 -47 13 -15 -3 -23 -1
-23 8 0 12 -87 57 -110 57 -6 0 -10 3 -10 8 0 4 -19 16 -43 26 -23 11 -49 25
-57 32 -8 7 -51 31 -95 54 -44 23 -91 50 -105 59 -14 10 -51 32 -83 50 -101
56 -267 168 -260 175 4 4 0 4 -10 0 -9 -3 -17 -2 -17 4 0 5 -25 22 -55 37 -30
15 -52 32 -49 36 3 5 -2 9 -11 9 -15 0 -66 34 -108 71 -9 9 -30 22 -45 29 -15
8 -45 28 -67 45 -22 17 -51 38 -65 47 -14 9 -45 34 -70 57 -25 22 -48 41 -53
41 -8 0 -17 7 -206 176 -168 149 -522 500 -514 508 4 3 1 6 -5 6 -17 0 -16 -4
23 -83 19 -39 35 -79 35 -89 0 -25 -23 -23 -35 4 -6 12 -18 26 -28 32 -23 13
-90 80 -137 137 -71 85 -135 149 -148 149 -10 0 -10 -4 2 -16 9 -8 16 -22 16
-30 0 -8 7 -17 15 -20 8 -4 15 -15 15 -26 0 -11 6 -26 13 -33 25 -28 35 -42
45 -62 6 -11 21 -31 32 -44 11 -13 56 -73 100 -134 111 -154 144 -199 150
-205 17 -16 40 -62 35 -70 -3 -6 -1 -10 6 -10 7 0 10 -3 6 -6 -16 -17 296
-359 316 -347 6 3 7 1 4 -4 -4 -6 26 -40 66 -76 39 -35 124 -110 187 -167 121
-108 246 -207 220 -176 -8 11 -15 22 -15 25 0 3 -6 4 -14 3 -7 -2 -10 1 -7 7
3 5 -6 19 -21 31 -39 30 -210 188 -318 293 -66 65 -83 87 -66 83 20 -4 13 7
-35 56 -32 34 -50 55 -39 47 35 -25 128 -122 197 -206 69 -83 193 -196 373
-339 88 -70 389 -274 506 -344 23 -14 78 -53 122 -88 44 -34 117 -83 161 -109
45 -25 117 -67 161 -93 62 -37 83 -45 96 -37 12 8 25 4 53 -18 20 -15 34 -30
32 -33 -3 -3 -14 1 -23 9 -16 13 -17 12 -4 -4 8 -10 20 -16 27 -13 7 3 43 -12
80 -31 99 -53 309 -131 321 -120 2 3 -60 37 -139 77 -81 41 -156 86 -173 104
-17 17 -68 49 -115 71 -115 53 -373 185 -385 197 -5 6 31 -10 81 -35 88 -44
144 -65 384 -142 63 -21 201 -70 305 -110 209 -79 302 -111 355 -119 19 -3
-37 19 -125 49 -202 70 -314 115 -439 177 -194 96 -207 132 -19 55 206 -85
476 -168 413 -127 -29 19 11 11 121 -25 60 -19 126 -35 146 -35 44 0 366 -64
403 -79 19 -8 7 -9 -51 -5 -82 7 -119 0 -119 -20 0 -8 66 -28 183 -55 100 -23
263 -62 362 -86 99 -25 224 -49 277 -55 101 -10 295 -14 286 -5 -3 3 -58 12
-124 20 -65 9 -144 21 -174 28 -51 12 -40 13 162 15 120 1 228 -2 242 -8 14
-5 60 -11 103 -14 43 -2 66 -2 51 0 -16 3 -28 11 -28 18 0 10 -24 16 -77 20
-305 27 -560 58 -523 64 13 2 56 -1 95 -7 250 -40 939 -63 1185 -41 74 7 234
16 355 20 121 5 265 15 320 24 89 14 107 14 164 0 64 -14 145 -11 157 7 3 5
-5 21 -16 37 -24 32 -15 32 -205 -4 -61 -11 -154 -17 -290 -19 -258 -4 -247
-3 -239 -16 5 -9 -6 -10 -41 -5 -30 5 -45 4 -41 -2 3 -6 -14 -13 -42 -16 -87
-11 -676 -17 -807 -8 -116 7 -97 8 171 9 310 2 497 13 644 39 47 9 114 19 150
24 162 21 381 64 488 94 250 72 564 146 613 146 8 0 -2 -10 -21 -22 -19 -12
-36 -23 -38 -24 -2 -1 2 -11 9 -22 11 -18 10 -23 -12 -42 l-24 -21 88 5 c61 3
87 2 87 -6 0 -6 10 -2 23 10 12 12 54 33 92 47 81 31 135 62 135 78 0 7 24 28
52 47 60 41 48 49 -38 26 -32 -8 -59 -14 -61 -12 -1 1 24 18 57 36 61 34 73
56 29 53 -109 -8 -180 -24 -349 -79 -232 -75 -463 -142 -505 -148 -16 -2 -23
-1 -15 1 8 3 101 33 205 68 105 34 217 70 250 79 33 9 125 36 205 60 146 44
328 86 365 86 16 -1 12 -7 -20 -35 -22 -18 -37 -37 -33 -40 12 -12 166 37 211
67 34 24 35 38 2 38 -29 0 -31 7 -8 32 22 25 8 23 -100 -11 -51 -17 -119 -35
-152 -42 -33 -6 -75 -16 -93 -21 -63 -19 -41 -2 46 35 94 40 108 43 114 26 4
-12 74 6 138 35 l35 16 -39 -6 c-26 -5 -41 -3 -46 6 -6 9 -54 -6 -189 -61
-100 -40 -177 -75 -171 -79 15 -10 -190 -74 -234 -73 -25 0 -33 -3 -25 -8 8
-5 10 -9 4 -9 -5 0 -16 4 -23 9 -10 6 -5 11 19 20 18 6 35 9 37 6 3 -3 -1 -5
-8 -5 -7 0 -11 -3 -8 -6 8 -7 158 37 158 47 0 5 8 6 18 3 16 -5 16 -5 0 6 -13
8 -31 5 -79 -15 -34 -13 -71 -22 -83 -19 -12 3 -82 -15 -156 -39 -135 -45
-221 -64 -505 -111 -83 -14 -173 -32 -200 -41 -28 -8 -131 -26 -230 -41 -99
-14 -182 -29 -185 -34 -6 -9 -37 -13 -98 -11 -24 1 -41 5 -38 10 6 9 29 13
231 36 77 9 164 25 195 36 30 11 105 26 165 34 61 8 171 26 245 39 364 67 425
85 667 195 110 50 168 69 88 30 -27 -14 -32 -19 -15 -16 113 22 196 43 260 68
41 15 126 47 189 69 110 38 168 66 158 76 -2 2 -24 -4 -48 -14 -73 -31 -231
-83 -242 -79 -5 1 16 15 49 29 56 24 215 115 419 240 147 90 426 253 491 287
33 18 107 70 165 116 57 47 111 85 121 85 9 0 52 27 95 59 75 57 134 111 120
111 -6 0 -88 -57 -205 -143 -60 -43 -84 -45 -27 -2 19 15 34 30 31 32 -4 4
-136 -96 -136 -103 0 -2 7 0 17 3 11 4 14 3 9 -6 -4 -6 -16 -9 -25 -6 -11 3
-24 -2 -32 -11 -13 -16 -12 -16 9 -5 37 20 25 5 -25 -31 -68 -48 -81 -56 -66
-36 7 8 10 17 7 20 -3 3 43 43 102 88 180 139 349 289 611 542 40 38 161 176
270 306 108 131 214 255 236 277 21 22 47 56 57 75 10 19 61 95 113 168 67 93
97 127 101 116 3 -9 4 -20 0 -25 -3 -5 -3 -9 0 -9 3 0 10 10 17 21 8 15 8 19
0 15 -18 -12 -12 5 14 40 14 18 25 35 25 38 0 2 49 88 109 189 117 197 141
241 141 254 0 4 -21 -28 -47 -72 -147 -252 -185 -315 -189 -315 -6 0 2 16 89
169 129 228 303 601 346 738 76 248 157 594 186 798 9 66 21 136 26 155 14 55
9 81 -6 29 -14 -54 -38 -92 -50 -81 -4 4 -5 -3 -1 -14 4 -15 -3 -42 -23 -80
-16 -33 -32 -70 -36 -84 -9 -32 -25 -51 -36 -45 -4 3 -12 -2 -17 -11 -9 -15
-10 -15 -16 4 -4 12 -10 22 -14 22 -15 -1 -42 -28 -42 -42 0 -9 -6 -21 -14
-27 -7 -6 -16 -25 -20 -42 -4 -20 -10 -28 -18 -23 -8 5 -9 2 -5 -10 4 -10 1
-19 -7 -22 -8 -3 -17 -17 -21 -32 -5 -20 -8 -23 -16 -11 -7 11 -9 11 -9 -4 0
-10 -5 -28 -12 -40 -12 -21 -13 -26 -16 -55 -1 -7 -6 -11 -11 -8 -4 3 -6 -7
-4 -22 4 -21 2 -24 -6 -12 -9 12 -11 10 -11 -13 0 -19 -4 -26 -12 -21 -6 4 -8
3 -5 -3 4 -6 0 -19 -8 -29 -8 -10 -15 -27 -15 -36 0 -10 -4 -18 -10 -18 -5 0
-9 -3 -8 -7 1 -5 -13 -39 -30 -76 -18 -38 -32 -72 -32 -76 0 -4 -18 -42 -40
-84 -36 -69 -54 -114 -30 -77 7 11 10 12 10 2 0 -36 -213 -405 -268 -464 -32
-35 -56 -37 -49 -5 3 12 51 139 107 282 147 375 178 463 215 620 18 77 49 201
69 276 21 81 36 160 36 195 0 32 5 77 11 99 6 22 11 129 13 239 2 190 2 196
-12 140 -20 -83 -32 -89 -33 -18 0 32 -4 77 -8 99 -8 40 -8 40 -16 12z m-263
-772 c-8 -16 -9 -16 -15 -1 -4 10 -3 15 3 11 6 -3 10 -1 10 6 0 7 3 10 6 6 3
-3 2 -13 -4 -22z m-97 -135 c3 -5 1 -10 -4 -10 -6 0 -11 5 -11 10 0 6 2 10 4
10 3 0 8 -4 11 -10z m-65 -585 c-6 -15 -13 -25 -16 -23 -2 3 1 17 7 32 16 34
23 27 9 -9z m-9210 -1805 c0 -5 -4 -10 -10 -10 -5 0 -10 5 -10 10 0 6 5 10 10
10 6 0 10 -4 10 -10z m200 -302 c53 -48 50 -48 -32 7 -41 27 -55 45 -36 45 7
0 38 -24 68 -52z m203 -100 c12 -6 65 -44 117 -83 52 -40 110 -80 129 -89 18
-10 81 -52 140 -94 150 -107 449 -313 494 -341 20 -12 37 -25 37 -28 0 -3 -10
1 -22 9 -13 8 -90 54 -171 102 -82 49 -181 114 -220 145 -40 31 -115 86 -167
121 -52 35 -129 90 -171 122 -49 38 -82 56 -92 52 -9 -3 -36 4 -60 16 -34 17
-43 27 -45 51 -3 32 0 34 31 17z m120 -210 c47 -24 36 -36 -17 -18 -41 13 -68
40 -42 40 9 0 36 -10 59 -22z m7597 7 c-7 -8 -17 -15 -22 -15 -6 0 -5 7 2 15
7 8 17 15 22 15 6 0 5 -7 -2 -15z m-7560 -85 c98 -80 556 -393 628 -429 60
-30 52 -18 -17 26 -32 21 -91 69 -131 106 -63 60 -67 66 -33 49 21 -11 56 -37
78 -59 23 -21 112 -87 198 -146 151 -104 178 -126 140 -113 -15 4 -15 4 -3 -5
67 -44 213 -131 304 -181 61 -33 122 -70 136 -82 14 -13 36 -31 50 -41 l25
-17 -27 6 c-47 11 -78 25 -78 36 0 6 -5 8 -12 4 -6 -4 -8 -3 -5 3 8 13 -50 51
-428 278 -154 92 -298 180 -320 195 -63 42 -73 44 -33 7 20 -18 117 -87 215
-152 214 -143 220 -148 116 -93 -82 44 -112 46 -77 6 30 -35 -170 105 -353
247 -96 75 -227 189 -308 269 -137 135 -155 160 -65 86z m7160 -165 c0 -8
-118 -83 -280 -177 -155 -91 -460 -253 -460 -245 0 3 84 52 188 110 332 186
416 233 482 275 72 45 70 44 70 37z m-6512 -168 c50 -27 92 -51 92 -53 0 -6
-94 33 -160 66 -33 17 -60 35 -60 40 0 13 19 5 128 -53z m262 -384 c114 -71
126 -80 55 -42 -70 37 -215 129 -215 136 0 2 17 -6 38 -18 20 -13 75 -47 122
-76z m5440 91 c0 -6 -145 -74 -157 -73 -4 0 28 18 72 39 93 45 85 41 85 34z
m-5395 -63 c22 -13 76 -44 120 -68 44 -23 76 -43 72 -43 -22 0 -257 134 -257
146 0 6 5 3 65 -35z m636 -99 c68 -28 183 -68 254 -90 300 -94 358 -113 509
-165 101 -36 190 -59 245 -66 151 -20 258 -42 364 -77 131 -43 105 -42 -113 1
-243 49 -417 96 -545 145 -61 24 -182 62 -270 85 -88 24 -209 61 -270 83 -125
45 -362 150 -371 164 -3 5 12 0 34 -11 22 -11 95 -42 163 -69z m4579 -12 c-8
-5 -19 -10 -25 -10 -5 0 -3 5 5 10 8 5 20 10 25 10 6 0 3 -5 -5 -10z m-390
-110 c-8 -5 -19 -10 -25 -10 -5 0 -3 5 5 10 8 5 20 10 25 10 6 0 3 -5 -5 -10z
m-53 -21 c-61 -36 -386 -135 -411 -126 -6 3 9 8 34 13 42 7 43 8 19 16 -20 7
-42 2 -90 -16 l-64 -25 45 4 c25 3 -42 -15 -149 -39 -107 -25 -206 -50 -220
-55 -14 -6 -53 -17 -86 -25 -33 -8 -51 -15 -40 -15 23 -1 251 45 264 54 12 7
294 65 298 61 5 -5 -178 -52 -313 -80 -213 -44 -475 -86 -619 -97 -141 -12
-368 -2 -505 22 -30 5 -118 16 -195 24 -147 16 -307 42 -265 44 14 0 54 -4 90
-9 36 -5 115 -14 175 -20 61 -6 164 -17 230 -25 210 -25 268 -28 261 -16 -5 8
11 11 51 12 54 2 55 2 18 8 l-40 7 40 12 c22 7 113 21 202 32 173 21 203 28
183 40 -18 11 65 19 236 22 84 2 150 7 147 12 -3 5 10 7 30 4 20 -2 34 -2 31
1 -3 3 21 13 53 22 32 9 85 26 118 37 69 23 250 66 345 81 36 6 79 15 95 20
41 13 54 12 32 0z m-1252 -9 c-27 -12 -43 -12 -25 0 8 5 22 9 30 9 10 0 8 -3
-5 -9z m-1082 -227 c-7 -2 -19 -2 -25 0 -7 3 -2 5 12 5 14 0 19 -2 13 -5z
m-280 -90 c-7 -2 -19 -2 -25 0 -7 3 -2 5 12 5 14 0 19 -2 13 -5z m75 -10 c-10
-2 -26 -2 -35 0 -10 3 -2 5 17 5 19 0 27 -2 18 -5z m1649 1 c-3 -3 -12 -4 -19
-1 -8 3 -5 6 6 6 11 1 17 -2 13 -5z m-1304 -11 c-13 -2 -35 -2 -50 0 -16 2 -5
4 22 4 28 0 40 -2 28 -4z m115 -10 c-15 -2 -42 -2 -60 0 -18 2 -6 4 27 4 33 0
48 -2 33 -4z"/>
<path d="M11965 5305 c-27 -7 -41 -13 -30 -14 11 0 43 6 70 13 63 18 28 19
-40 1z"/>
<path d="M11888 5283 c7 -3 16 -2 19 1 4 3 -2 6 -13 5 -11 0 -14 -3 -6 -6z"/>
<path d="M11928 5273 c7 -3 16 -2 19 1 4 3 -2 6 -13 5 -11 0 -14 -3 -6 -6z"/>
<path d="M11708 5223 c7 -3 16 -2 19 1 4 3 -2 6 -13 5 -11 0 -14 -3 -6 -6z"/>
<path d="M11478 5183 c7 -3 16 -2 19 1 4 3 -2 6 -13 5 -11 0 -14 -3 -6 -6z"/>
<path d="M11382 5170 c-18 -4 -36 -11 -40 -15 -7 -7 55 3 98 16 l25 7 -25 0
c-14 0 -40 -4 -58 -8z"/>
<path d="M11213 5093 c9 -2 23 -2 30 0 6 3 -1 5 -18 5 -16 0 -22 -2 -12 -5z"/>
<path d="M11143 5083 c9 -2 25 -2 35 0 9 3 1 5 -18 5 -19 0 -27 -2 -17 -5z"/>
<path d="M11068 5073 c12 -2 30 -2 40 0 9 3 -1 5 -23 4 -22 0 -30 -2 -17 -4z"/>
<path d="M10968 5063 c12 -2 30 -2 40 0 9 3 -1 5 -23 4 -22 0 -30 -2 -17 -4z"/>
<path d="M10853 5053 c15 -2 37 -2 50 0 12 2 0 4 -28 4 -27 0 -38 -2 -22 -4z"/>
<path d="M15998 10200 c-2 -22 0 -40 4 -40 5 0 8 18 8 40 0 22 -2 40 -4 40 -2
0 -6 -18 -8 -40z"/>
<path d="M15979 10097 c-9 -44 -9 -62 0 -79 10 -20 11 -18 6 20 -3 24 -1 42 5
42 5 0 7 7 3 16 -3 9 -1 19 5 23 6 4 8 12 3 20 -6 9 -13 -4 -22 -42z"/>
<path d="M15462 10068 c-21 -21 -13 -32 9 -12 17 16 22 16 30 4 9 -13 10 -13
6 0 -5 19 -29 24 -45 8z"/>
<path d="M6991 10004 c0 -11 3 -14 6 -6 3 7 2 16 -1 19 -3 4 -6 -2 -5 -13z"/>
<path d="M15948 9945 c-3 -14 -1 -25 3 -25 5 0 9 11 9 25 0 14 -2 25 -4 25 -2
0 -6 -11 -8 -25z"/>
<path d="M15360 9920 c-9 -6 -10 -10 -3 -10 6 0 15 5 18 10 8 12 4 12 -15 0z"/>
<path d="M15681 9764 c0 -11 3 -14 6 -6 3 7 2 16 -1 19 -3 4 -6 -2 -5 -13z"/>
<path d="M15411 9723 c-10 -26 -10 -27 4 -9 8 11 15 23 15 28 0 15 -7 8 -19
-19z"/>
<path d="M7030 9721 c0 -6 4 -13 10 -16 6 -3 7 1 4 9 -7 18 -14 21 -14 7z"/>
<path d="M15373 9675 c0 -8 4 -12 9 -9 5 3 6 10 3 15 -9 13 -12 11 -12 -6z"/>
<path d="M15900 9636 c0 -8 4 -17 9 -20 5 -4 7 3 4 14 -6 23 -13 26 -13 6z"/>
<path d="M15296 9623 c-6 -14 -5 -15 5 -6 7 7 10 15 7 18 -3 3 -9 -2 -12 -12z"/>
<path d="M15257 9568 c5 -21 4 -22 -8 -5 -13 16 -14 15 -15 -10 -1 -16 1 -22
4 -14 3 10 9 7 19 -10 l14 -24 -7 24 c-4 15 -2 21 4 17 6 -4 8 2 5 14 -7 28
-22 35 -16 8z"/>
<path d="M15221 9494 c0 -11 3 -14 6 -6 3 7 2 16 -1 19 -3 4 -6 -2 -5 -13z"/>
<path d="M15617 9493 c-4 -3 -7 -11 -7 -17 0 -6 5 -5 12 2 6 6 9 14 7 17 -3 3
-9 2 -12 -2z"/>
<path d="M15596 9403 c-6 -14 -5 -15 5 -6 7 7 10 15 7 18 -3 3 -9 -2 -12 -12z"/>
<path d="M7194 9366 c1 -8 5 -18 8 -22 4 -3 5 1 4 10 -1 8 -5 18 -8 22 -4 3
-5 -1 -4 -10z"/>
<path d="M7270 9340 c6 -11 13 -20 16 -20 2 0 0 9 -6 20 -6 11 -13 20 -16 20
-2 0 0 -9 6 -20z"/>
<path d="M7228 9324 c-6 -6 20 -64 29 -64 14 0 52 39 43 45 -5 3 -10 0 -10 -7
-1 -8 -6 -6 -15 6 -11 14 -15 16 -15 5 -1 -11 -4 -10 -14 3 -7 10 -15 15 -18
12z m42 -40 c0 -8 -5 -12 -10 -9 -6 4 -8 11 -5 16 9 14 15 11 15 -7z"/>
<path d="M7285 9250 c-4 -6 -11 -7 -17 -4 -6 4 0 -7 13 -25 12 -17 27 -31 31
-31 5 0 7 -4 4 -9 -4 -5 10 -28 31 -50 20 -23 43 -52 52 -65 35 -53 206 -293
230 -323 37 -45 81 -118 81 -134 0 -23 82 -120 159 -189 40 -36 132 -121 204
-189 73 -68 180 -159 240 -203 59 -45 107 -86 107 -93 0 -26 310 -213 395
-238 183 -55 308 -96 430 -142 117 -45 151 -54 205 -53 54 0 61 1 43 10 -13 6
-23 14 -23 18 0 4 -27 18 -60 30 -68 26 -77 35 -23 27 20 -4 32 -3 27 2 -9 8
-248 85 -294 94 -14 3 -36 8 -50 12 l-25 6 23 -17 c51 -38 8 -45 -83 -14 -92
32 -204 89 -215 110 -12 22 -67 59 -207 139 -88 50 -130 83 -87 68 29 -10 -52
59 -136 116 -177 119 -368 264 -410 311 -25 28 -68 75 -95 106 -139 152 -190
216 -303 385 -34 50 -83 122 -109 160 -44 65 -55 84 -86 152 -5 12 -15 19 -23
16 -10 -4 -12 0 -8 11 7 17 -11 22 -21 6z m55 -50 c0 -5 -4 -10 -9 -10 -6 0
-13 5 -16 10 -3 6 1 10 9 10 9 0 16 -4 16 -10z"/>
<path d="M15550 9241 c0 -5 5 -13 10 -16 6 -3 10 -2 10 4 0 5 -4 13 -10 16 -5
3 -10 2 -10 -4z"/>
<path d="M15545 9199 c-4 -6 -5 -12 -2 -15 2 -3 7 2 10 11 7 17 1 20 -8 4z"/>
<path d="M15527 9140 c-3 -11 -2 -22 2 -24 4 -3 8 6 9 20 2 29 -4 31 -11 4z"/>
<path d="M15517 9093 c-4 -3 -7 -11 -7 -17 0 -6 5 -5 12 2 6 6 9 14 7 17 -3 3
-9 2 -12 -2z"/>
<path d="M15478 8986 c-15 -41 -23 -78 -19 -80 4 -3 14 14 21 37 7 23 17 54
22 69 6 15 8 32 6 38 -2 7 -16 -22 -30 -64z"/>
<path d="M15442 8893 c1 -4 -3 -18 -10 -31 -7 -12 -10 -27 -6 -33 4 -8 10 -6
16 5 14 26 18 55 7 62 -5 3 -8 2 -7 -3z"/>
<path d="M15411 8815 c1 -5 -5 -26 -14 -45 -23 -48 -137 -349 -137 -360 0 -24
19 -5 59 58 122 191 144 228 166 274 32 66 4 42 -30 -27 -16 -30 -32 -52 -36
-49 -5 3 -9 -2 -9 -10 0 -8 -9 -20 -20 -26 -11 -6 -20 -18 -20 -27 0 -9 -3
-14 -6 -11 -3 4 1 26 9 50 11 32 16 38 20 23 2 -11 3 -6 0 11 -2 17 0 33 4 37
3 4 8 19 9 34 2 14 7 29 11 32 11 8 11 27 0 38 -5 4 -7 4 -6 -2z"/>
<path d="M13545 8375 c-4 -11 -18 -41 -32 -67 -13 -27 -22 -48 -19 -48 10 0
67 111 63 123 -3 7 -7 4 -12 -8z"/>
<path d="M13370 8132 l-45 -45 42 32 c42 32 58 49 52 56 -2 1 -24 -18 -49 -43z"/>
<path d="M13318 7994 c-29 -25 -52 -50 -50 -56 1 -5 -2 -7 -7 -4 -5 3 -25 -12
-45 -34 -35 -39 -39 -60 -13 -60 8 0 8 3 -1 9 -11 6 -10 10 5 16 10 5 21 7 26
7 4 -1 7 5 7 13 0 8 6 12 14 9 7 -3 16 2 19 10 4 9 13 16 21 16 8 0 28 16 45
35 17 19 34 35 39 35 4 0 13 5 19 11 9 9 8 15 -2 25 -7 8 -16 14 -18 14 -3 0
-29 -21 -59 -46z"/>
<path d="M13281 8011 c-8 -5 -16 -17 -17 -25 -1 -9 2 -14 7 -10 5 3 7 10 4 15
-4 5 1 9 9 9 8 0 18 5 21 10 8 12 -5 13 -24 1z"/>
<path d="M15505 7969 c-4 -6 -5 -12 -2 -15 2 -3 7 2 10 11 7 17 1 20 -8 4z"/>
<path d="M7346 7942 c-3 -6 1 -13 10 -16 23 -9 28 -2 10 13 -8 7 -17 8 -20 3z"/>
<path d="M15440 7900 c-6 -11 -8 -20 -6 -20 3 0 10 9 16 20 6 11 8 20 6 20 -3
0 -10 -9 -16 -20z"/>
<path d="M15379 7838 c-36 -68 -223 -337 -295 -423 -45 -55 -115 -140 -154
-190 -82 -103 -274 -302 -376 -390 -38 -32 -112 -100 -164 -150 -52 -50 -125
-117 -163 -149 -76 -66 -84 -91 -10 -29 26 22 71 50 98 63 62 29 370 334 524
520 57 69 135 157 172 195 64 66 228 300 326 465 57 95 65 110 59 110 -3 0
-11 -10 -17 -22z"/>
<path d="M13147 7805 c-37 -33 -24 -32 15 0 16 14 26 25 21 25 -4 0 -21 -12
-36 -25z"/>
<path d="M15349 7743 c-48 -83 -61 -111 -35 -76 25 34 87 145 83 149 -2 2 -23
-31 -48 -73z"/>
<path d="M13028 7748 c5 -5 16 -8 23 -6 8 3 3 7 -10 11 -17 4 -21 3 -13 -5z"/>
<path d="M11218 7493 c7 -3 16 -2 19 1 4 3 -2 6 -13 5 -11 0 -14 -3 -6 -6z"/>
<path d="M12989 7482 c-15 -9 -69 -41 -120 -71 -52 -30 -105 -62 -118 -72 -13
-10 -27 -17 -31 -14 -4 3 -10 -2 -14 -10 -3 -8 -13 -15 -22 -15 -20 0 -54 -37
-54 -58 0 -9 6 -7 18 8 11 13 24 20 30 16 13 -8 -47 -66 -67 -66 -6 0 -11 -4
-11 -10 0 -28 208 92 237 137 10 15 27 34 38 42 11 8 36 31 57 51 20 19 40 34
45 33 5 -2 20 8 33 22 27 28 17 31 -21 7z"/>
<path d="M11000 7433 c-58 -14 -159 -31 -225 -38 -66 -7 -113 -13 -105 -14 13
-1 13 -2 0 -11 -19 -12 67 -13 125 -1 46 10 276 67 320 80 66 20 -15 8 -115
-16z"/>
<path d="M15109 7353 c-13 -16 -12 -17 4 -4 9 7 17 15 17 17 0 8 -8 3 -21 -13z"/>
<path d="M15059 7283 c-13 -16 -12 -17 4 -4 9 7 17 15 17 17 0 8 -8 3 -21 -13z"/>
<path d="M7520 7259 c14 -11 35 -29 48 -40 27 -23 44 -25 36 -4 -4 8 -10 15
-15 15 -4 0 -20 11 -35 25 -15 14 -34 25 -43 25 -12 -1 -10 -6 9 -21z"/>
<path d="M15029 7243 c-13 -16 -12 -17 4 -4 9 7 17 15 17 17 0 8 -8 3 -21 -13z"/>
<path d="M8488 7243 c7 -3 16 -2 19 1 4 3 -2 6 -13 5 -11 0 -14 -3 -6 -6z"/>
<path d="M14996 7195 c-20 -30 -142 -182 -171 -211 -11 -12 -47 -50 -81 -85
-34 -35 -117 -116 -185 -179 -68 -63 -167 -155 -219 -205 -89 -85 -201 -185
-254 -226 -13 -11 -44 -42 -68 -71 l-43 -52 46 32 c26 17 61 50 79 72 17 22
43 43 58 47 47 11 767 729 767 764 0 5 15 22 33 39 18 16 39 46 48 65 17 41
13 45 -10 10z"/>
<path d="M12550 7200 c-8 -5 -10 -10 -5 -10 6 0 17 5 25 10 8 5 11 10 5 10 -5
0 -17 -5 -25 -10z"/>
<path d="M11220 7123 c-25 -9 -39 -18 -33 -20 16 -6 81 15 88 28 8 12 -1 11
-55 -8z"/>
<path d="M14743 6963 c-186 -198 -242 -254 -323 -327 -36 -32 -60 -56 -54 -54
23 6 344 310 339 319 -3 5 20 35 53 66 72 72 146 153 139 153 -3 0 -72 -71
-154 -157z"/>
<path d="M6825 6879 c7 -26 76 -94 201 -199 44 -38 92 -81 105 -97 13 -16 42
-42 64 -58 58 -43 239 -188 245 -196 13 -17 196 -118 222 -121 13 -2 28 -7 34
-10 6 -4 31 -10 55 -14 66 -9 109 -24 106 -37 -1 -8 14 -12 43 -12 31 0 44 -4
43 -12 -2 -7 6 -13 17 -13 20 0 20 1 4 25 -9 14 -25 25 -36 25 -10 0 -16 5
-13 10 3 6 -1 10 -9 10 -8 0 -35 14 -58 30 -46 33 -91 63 -353 235 -93 62
-183 124 -198 139 -15 14 -35 26 -43 26 -7 0 -14 6 -14 13 0 7 -18 23 -40 36
-22 12 -40 26 -40 30 0 4 -19 21 -42 38 -24 17 -65 52 -93 77 -27 25 -53 46
-57 46 -5 0 -8 8 -8 18 -1 15 -2 15 -15 -2 -13 -17 -15 -17 -21 -3 -8 22 -31
22 -37 0 -4 -17 -5 -17 -6 0 -1 18 -21 25 -21 7 0 -5 -4 -10 -10 -10 -5 0 -10
6 -10 14 0 8 -5 18 -11 22 -8 4 -9 -1 -4 -17z"/>
<path d="M13941 6310 c-30 -26 -14 -26 19 0 14 11 21 20 15 19 -5 0 -21 -9
-34 -19z"/>
<path d="M13930 6238 c-111 -61 -441 -260 -450 -271 -5 -7 -25 -31 -46 -54
-20 -24 -33 -43 -30 -43 4 0 57 33 119 73 62 40 171 108 244 151 74 44 152
100 179 127 27 27 46 49 44 48 -3 0 -30 -14 -60 -31z"/>
<path d="M6800 5916 c0 -2 8 -10 18 -17 15 -13 16 -12 3 4 -13 16 -21 21 -21
13z"/>
<path d="M6880 5855 c19 -16 60 -53 90 -81 56 -53 167 -134 182 -134 19 0 5
19 -37 49 -25 18 -43 36 -40 41 3 5 0 12 -6 16 -8 4 -9 3 -5 -4 4 -7 4 -12 1
-12 -13 0 -96 62 -91 67 3 3 13 0 23 -8 9 -8 14 -9 10 -3 -10 18 -124 94 -130
87 -4 -3 -12 -2 -20 3 -7 5 3 -4 23 -21z m86 -52 c-5 -5 -86 54 -86 63 0 3 21
-9 46 -26 25 -18 43 -34 40 -37z"/>
<path d="M7095 5720 c3 -5 26 -24 51 -40 24 -17 42 -35 39 -40 -5 -8 77 -82
128 -113 48 -31 29 -11 -48 48 -42 32 -73 60 -70 63 3 3 13 -2 22 -10 10 -9
29 -21 42 -28 42 -22 13 8 -52 53 -88 60 -120 79 -112 67z"/>
<path d="M13174 5664 c-65 -22 -64 -23 11 -7 28 6 29 5 16 -11 -14 -16 -12
-17 23 -10 25 4 41 3 45 -5 5 -7 20 0 45 22 l39 33 -55 0 c-34 1 -82 -8 -124
-22z"/>
<path d="M13375 5609 c-16 -4 -47 -7 -69 -8 -43 -1 -139 -48 -133 -65 2 -6 15
-10 28 -10 13 1 27 -5 32 -12 6 -10 23 -5 76 22 62 31 111 69 100 77 -2 2 -17
0 -34 -4z"/>
<path d="M12929 5413 c-55 -37 -60 -48 -27 -57 16 -4 44 7 90 35 38 22 68 41
68 43 0 2 -18 6 -41 8 -33 3 -50 -2 -90 -29z"/>
<path d="M7985 5313 c11 -12 157 -74 228 -98 53 -18 89 -16 41 2 -16 6 -78 30
-139 53 -60 23 -117 44 -125 47 -10 4 -12 3 -5 -4z"/>
<path d="M11760 5121 c-180 -36 -139 -47 65 -18 150 21 154 21 195 2 22 -10
46 -27 51 -37 18 -33 69 -16 69 23 0 20 -20 29 -66 29 -19 0 -33 5 -31 11 5
22 -144 17 -283 -10z"/>
<path d="M11408 5053 c6 -2 18 -2 25 0 6 3 1 5 -13 5 -14 0 -19 -2 -12 -5z"/>
<path d="M11375 4927 c-104 -10 -258 -11 -610 -4 -167 4 -193 3 -125 -5 100
-11 175 -30 157 -39 -6 -3 -48 -9 -92 -13 -43 -3 -84 -11 -90 -17 -19 -21 323
-3 480 25 93 17 177 26 250 26 96 0 260 21 274 35 7 8 -134 3 -244 -8z"/>
</g>
</svg>
